<svg width="154" height="124" viewBox="0 0 154 124" fill="none" xmlns="http://www.w3.org/2000/svg">
<path d="M93.3749 105.093C93.2151 105.758 92.8055 106.372 92.1977 106.856C91.5898 107.34 90.8112 107.673 89.96 107.813C89.1089 107.953 88.2235 107.893 87.4157 107.642C86.6079 107.391 85.914 106.959 85.4216 106.402C84.9293 105.844 84.6606 105.185 84.6495 104.509C84.6384 103.832 84.8854 103.169 85.3593 102.601C85.8332 102.034 86.5128 101.589 87.3121 101.322C88.1114 101.054 88.9945 100.978 89.85 101.101C90.4188 101.182 90.9613 101.351 91.4465 101.596C91.9316 101.841 92.3499 102.158 92.6773 102.529C93.0047 102.9 93.2348 103.317 93.3545 103.757C93.4742 104.197 93.4812 104.651 93.3749 105.093ZM75.4454 9.53299C38.4686 9.38105 9.83914 32.0496 8.15091 60.1027C7.73667 66.9762 8.58079 73.1083 11.9572 78.7481C13.0515 79.7448 14.091 80.4741 14.9038 81.179C24.3375 89.5354 38.2341 89.1161 42.6501 88.2409C24.7752 87.8155 15.4822 77.3503 15.9824 62.558C16.8031 38.753 41.9154 19.5059 72.5379 19.7126C86.0354 19.7993 99.0355 23.6855 109.132 30.6518C109.794 31.1114 110.285 31.7011 110.554 32.3592C110.822 33.0172 110.858 33.7194 110.658 34.3919C110.457 35.0644 110.027 35.6825 109.414 36.1815C108.8 36.6804 108.025 37.0417 107.17 37.2275C101.894 38.3154 95.2195 38.127 93.7188 37.7745C88.7089 36.6016 87.388 40.3513 90.8739 41.3845C92.7521 41.9132 94.7498 42.1365 96.7436 42.0408C97.0738 42.0288 97.3985 42.1102 97.6576 42.27C97.9166 42.4298 98.0924 42.6572 98.1525 42.91C98.2125 43.1628 98.1528 43.424 97.9843 43.6452C97.8158 43.8664 97.55 44.0327 97.236 44.1132C93.2038 45.0415 89.0655 45.6643 84.8791 45.9729C78.3138 46.5381 79.0641 50.6646 84.926 50.537C99.3072 50.227 111.5 39.227 116.455 36.711C121.066 41.6276 124.998 47.2613 126.616 53.4298C125.74 54.232 118.018 62.7586 118.417 68.295C118.69 71.7166 123.724 71.8989 123.388 67.1221C123.162 65.224 123.532 63.3116 124.466 61.5492C124.646 61.2517 124.949 61.0098 125.327 60.8625C125.705 60.7151 126.135 60.6709 126.549 60.7368C126.963 60.8027 127.337 60.9751 127.61 61.226C127.883 61.477 128.039 61.792 128.054 62.1204C128.054 62.6005 128.054 63.0807 128.054 63.5668C127.952 78.3835 118.112 88.8426 103.418 95.7343C102.318 96.2511 101.442 97.0127 100.904 97.9206C100.366 98.8285 100.191 99.841 100.401 100.827V100.93C100.58 101.761 101.024 102.543 101.693 103.205C102.361 103.868 103.233 104.389 104.227 104.721C105.222 105.054 106.308 105.187 107.386 105.109C108.464 105.031 109.5 104.743 110.398 104.273C128.859 94.762 141.864 78.5172 141.982 60.6619C142.286 32.5723 112.422 9.67884 75.4454 9.53299Z" fill="url(#paint0_radial_63_89)"/>
<path d="M91.6241 121.18C90.6606 121.349 89.6594 121.338 88.7026 121.147C87.7458 120.957 86.8606 120.593 86.1194 120.086C85.3783 119.578 84.8023 118.941 84.4386 118.227C84.0749 117.513 83.9339 116.743 84.0271 115.978V115.881C84.1652 114.885 84.6959 113.946 85.5465 113.193C86.3972 112.44 87.5262 111.91 88.7791 111.675C117.909 106.206 141.872 84.935 142.036 60.6255C142.232 32.5481 112.406 9.65467 75.4297 9.50881C38.4529 9.36296 10.0345 32.0619 8.15084 60.1029C6.78307 80.4499 22.1099 86.2356 28.8941 90.4229C21.1408 89.0858 6.13435 89.4809 0.311547 61.7012C0.311547 60.899 0.256836 60.0968 0.256836 59.2703C0.360481 43.4704 8.53178 28.3497 22.9731 17.2345C30.1238 11.7309 38.5985 7.37622 47.9135 4.41924C57.2285 1.46227 67.2013 -0.0391295 77.2625 0.000775038C87.3237 0.0406796 97.2763 1.6211 106.552 4.65181C115.828 7.68252 124.245 12.1042 131.323 17.6643C138.401 23.2244 144.001 29.8141 147.804 37.0571C151.607 44.3002 153.538 52.0547 153.487 59.878C153.291 88.6179 125.389 114.927 91.6241 121.18ZM74.4292 114.015C73.1723 113.835 71.8747 113.948 70.7006 114.341C69.5265 114.734 68.5286 115.389 67.833 116.222C67.1374 117.056 66.7753 118.032 66.7926 119.026C66.8099 120.019 67.2057 120.987 67.93 121.806C68.6543 122.625 69.6746 123.258 70.8619 123.626C72.0492 123.994 73.3503 124.08 74.6005 123.874C75.8507 123.667 76.994 123.177 77.8859 122.465C78.7778 121.753 79.3781 120.851 79.6111 119.874C79.9245 118.566 79.5583 117.215 78.5928 116.117C77.6273 115.019 76.1413 114.263 74.4605 114.015H74.4292Z" fill="url(#paint1_radial_63_89)"/>
<path style="mix-blend-mode:multiply" opacity="0.37" d="M42.65 88.2531C34.5215 88.0586 28.175 85.7857 23.7122 81.9752C7.64281 75.8978 0.811761 62.5276 0.874288 52.1475C0.490203 54.5164 0.284036 56.9008 0.256836 59.2884C0.256836 60.0967 0.256836 60.8989 0.311547 61.7193C6.13435 89.4807 21.1408 89.0857 28.8941 90.4227C32.802 89.0067 38.6483 89.0431 42.65 88.2531Z" fill="url(#paint2_linear_63_89)"/>
<path d="M83.2689 69.0303C71.2169 81.264 55.1866 90.4287 34.3652 87.8276C13.9815 85.2751 1.03841 69.8568 0.858649 52.123C-4.83129 83.0143 20.07 98.9917 45.6747 100.225C68.1375 101.313 86.9737 91.2552 98.0409 79.0458C94.4065 74.0684 86.7939 70.7198 83.2689 69.0303Z" fill="url(#paint3_radial_63_89)"/>
<path d="M91.4833 73.3452C88.8812 71.762 86.1418 70.3203 83.2845 69.0303C71.2325 81.264 55.2022 90.4287 34.3807 87.8276C13.9814 85.2751 1.03834 69.8568 0.858578 52.123C0.858578 52.123 0.858578 52.1838 0.858578 52.2142C-2.43189 80.4496 20.1715 93.5403 42.6656 94.4944C63.1431 95.3453 81.3227 86.2596 91.4833 73.3452Z" fill="url(#paint4_radial_63_89)"/>
<path d="M99.9635 79.9943C92.5861 77.8963 86.2007 74.1073 81.651 69.128C81.0946 68.5373 80.8071 67.8194 80.834 67.0875C80.8609 66.3556 81.2006 65.6516 81.7995 65.0866C87.5598 59.6169 103.918 44.2777 108.967 40.7771C115.126 36.5229 128.038 31.5213 130.899 33.2108C133.759 34.9003 131.329 45.7605 127.686 51.8258C125.342 55.6849 110.155 72.896 104.848 78.7606C104.321 79.3547 103.557 79.7973 102.674 80.0203C101.792 80.2432 100.839 80.2341 99.9635 79.9943Z" fill="url(#paint5_linear_63_89)"/>
<path d="M130.922 33.2466C130.853 33.2093 130.78 33.1768 130.703 33.1494C127.467 31.788 115.009 36.6499 108.991 40.8129C103.942 44.2952 87.5832 59.6528 81.8229 65.1224C81.2241 65.6874 80.8843 66.3914 80.8574 67.1233C80.8305 67.8552 81.118 68.5732 81.6744 69.1638C83.2221 70.8031 84.9536 72.3324 86.8485 73.734C87.2966 74.0622 87.75 74.3782 88.2085 74.6821L88.5211 74.8887C88.9197 75.15 89.3027 75.3992 89.7248 75.6484L89.9514 75.7882C90.436 76.0738 90.9206 76.3473 91.4208 76.6086L91.6396 76.7241C92.0539 76.9429 92.4759 77.1556 92.898 77.3318L93.281 77.5141C93.7187 77.7208 94.1642 77.9213 94.6097 78.1219L94.7973 78.2009C95.3053 78.4136 95.8211 78.6202 96.3604 78.8086L96.7512 78.9484C97.1498 79.0942 97.5328 79.234 97.9627 79.3677L98.4082 79.5197C98.9397 79.6837 99.4711 79.8478 99.9713 79.9998H100.112C100.966 80.2152 101.887 80.2135 102.74 79.995C103.593 79.7764 104.334 79.3524 104.856 78.7843C110.163 72.9196 125.381 55.6903 127.694 51.8494C131.344 45.7964 133.744 34.9847 130.922 33.2466ZM125.404 51.0776C122.755 54.803 106.193 71.2484 100.261 76.7423C98.0721 78.7721 94.5862 77.6114 90.2094 74.8583C87.4504 73.1202 83.3705 69.8141 85.8012 67.2981C91.2723 61.6644 106.513 45.6323 111.32 41.9494C116.299 38.1267 126.092 33.593 130.758 33.2709C132.407 36.1577 129.242 45.6748 125.404 51.0776Z" fill="url(#paint6_linear_63_89)"/>
<path d="M85.0197 62.0471L74.8591 69.5709C74.7146 69.7018 74.5167 69.7903 74.2985 69.8215C74.0802 69.8526 73.8548 69.8246 73.6599 69.7421C73.4651 69.6595 73.3125 69.5275 73.2278 69.368C73.143 69.2086 73.1312 69.0313 73.1943 68.8659L75.3593 63.1349C75.5402 62.6589 75.8768 62.2276 76.3363 61.883L84.2381 55.9819C84.6085 55.705 85.0939 55.5399 85.6069 55.5166C86.1198 55.4932 86.6267 55.6129 87.0362 55.8542L89.889 57.5377L85.0197 62.0471ZM107.787 75.4841L101.214 85.1471C101.091 85.2906 101.034 85.4626 101.054 85.6345C101.074 85.8064 101.169 85.9678 101.324 86.0916C101.479 86.2154 101.683 86.2942 101.904 86.3148C102.124 86.3353 102.347 86.2965 102.535 86.2046L109.046 83.0444C109.589 82.7823 110.034 82.4133 110.335 81.9748L115.525 74.4753C115.766 74.1235 115.838 73.7166 115.73 73.3271C115.621 72.9376 115.338 72.5907 114.931 72.3482L112.078 70.6648L107.787 75.4841ZM88.3024 78.298L93.156 74.7305L101.066 66.6233C101.164 66.5244 101.236 66.4112 101.277 66.2904C101.319 66.1696 101.329 66.0435 101.307 65.9197C101.285 65.7958 101.232 65.6765 101.15 65.5688C101.069 65.4611 100.96 65.3672 100.831 65.2924L99.5259 64.5206C99.2661 64.369 98.9399 64.3032 98.6181 64.3373C98.2962 64.3714 98.0046 64.5028 97.8064 64.7029L89.8499 72.8526L86.7939 77.3985C86.6949 77.5549 86.6687 77.7331 86.7197 77.9028C86.7707 78.0725 86.8958 78.2233 87.0737 78.3293C87.2516 78.4354 87.4712 78.4902 87.6952 78.4845C87.9193 78.4788 88.1338 78.4129 88.3024 78.298Z" fill="url(#paint7_linear_63_89)"/>
<path d="M117.182 41.5369C115.92 41.5837 114.705 41.9203 113.69 42.5043C112.674 43.0882 111.904 43.8931 111.477 44.8173C111.05 45.7415 110.985 46.7435 111.29 47.6964C111.595 48.6494 112.257 49.5105 113.192 50.171C114.126 50.8315 115.292 51.2616 116.541 51.407C117.79 51.5523 119.067 51.4064 120.209 50.9877C121.351 50.5689 122.308 49.8962 122.959 49.0545C123.61 48.2128 123.925 47.2399 123.864 46.259C123.784 44.9438 123.034 43.7075 121.781 42.8219C120.528 41.9364 118.873 41.4741 117.182 41.5369ZM117.713 50.2154C116.767 50.2506 115.828 50.0668 115.016 49.687C114.203 49.3073 113.554 48.7487 113.15 48.082C112.746 47.4154 112.606 46.6705 112.746 45.9417C112.887 45.2128 113.302 44.5328 113.94 43.9876C114.578 43.4424 115.409 43.0565 116.329 42.8788C117.249 42.701 118.216 42.7394 119.107 42.9891C119.999 43.2387 120.776 43.6885 121.339 44.2813C121.901 44.8742 122.226 45.5836 122.27 46.3198C122.302 46.8085 122.209 47.2973 121.996 47.758C121.784 48.2187 121.457 48.6422 121.033 49.0043C120.61 49.3663 120.099 49.6596 119.529 49.8675C118.959 50.0753 118.342 50.1936 117.713 50.2154Z" fill="url(#paint8_linear_63_89)"/>
<defs>
<radialGradient id="paint0_radial_63_89" cx="0" cy="0" r="1" gradientUnits="userSpaceOnUse" gradientTransform="translate(75.0546 58.711) scale(65.1529 50.6609)">
<stop stop-color="#00FF1E"/>
<stop offset="0.08" stop-color="#0BFF3A"/>
<stop offset="0.27" stop-color="#21FF71"/>
<stop offset="0.43" stop-color="#31FF9A"/>
<stop offset="0.55" stop-color="#3BFFB3"/>
<stop offset="0.63" stop-color="#3FFFBC"/>
<stop offset="0.69" stop-color="#3DFBBB"/>
<stop offset="0.75" stop-color="#36EDBA"/>
<stop offset="0.82" stop-color="#2CD7B7"/>
<stop offset="0.89" stop-color="#1DB8B2"/>
<stop offset="0.96" stop-color="#0A91AD"/>
<stop offset="1" stop-color="#007CAA"/>
</radialGradient>
<radialGradient id="paint1_radial_63_89" cx="0" cy="0" r="1" gradientUnits="userSpaceOnUse" gradientTransform="translate(76.0327 61.7965) rotate(8.12796) scale(77.2333 60.8393)">
<stop stop-color="#00FF1E"/>
<stop offset="0.08" stop-color="#0BFF3A"/>
<stop offset="0.27" stop-color="#21FF71"/>
<stop offset="0.43" stop-color="#31FF9A"/>
<stop offset="0.55" stop-color="#3BFFB3"/>
<stop offset="0.63" stop-color="#3FFFBC"/>
<stop offset="0.69" stop-color="#3DFBBB"/>
<stop offset="0.75" stop-color="#36EDBA"/>
<stop offset="0.82" stop-color="#2CD7B7"/>
<stop offset="0.89" stop-color="#1DB8B2"/>
<stop offset="0.96" stop-color="#0A91AD"/>
<stop offset="1" stop-color="#007CAA"/>
</radialGradient>
<linearGradient id="paint2_linear_63_89" x1="10.9333" y1="53.0104" x2="22.1763" y2="94.8907" gradientUnits="userSpaceOnUse">
<stop stop-color="white"/>
<stop offset="1" stop-color="#212120"/>
</linearGradient>
<radialGradient id="paint3_radial_63_89" cx="0" cy="0" r="1" gradientUnits="userSpaceOnUse" gradientTransform="translate(99.2302 68.945) rotate(8.12796) scale(115.525 91.0029)">
<stop stop-color="#B894C4"/>
<stop offset="0.4" stop-color="#83A5D6"/>
<stop offset="1" stop-color="#38BEEF"/>
</radialGradient>
<radialGradient id="paint4_radial_63_89" cx="0" cy="0" r="1" gradientUnits="userSpaceOnUse" gradientTransform="translate(83.8463 75.1764) rotate(8.12796) scale(88.4832 69.7013)">
<stop stop-color="#F3D2E5"/>
<stop offset="0.46" stop-color="#A7CAE5"/>
<stop offset="1" stop-color="#49BFE4"/>
</radialGradient>
<linearGradient id="paint5_linear_63_89" x1="115.417" y1="49.6276" x2="83.4722" y2="103.833" gradientUnits="userSpaceOnUse">
<stop stop-color="white"/>
<stop offset="0.43" stop-color="#B3E4F4"/>
<stop offset="1" stop-color="#49BFE4"/>
</linearGradient>
<linearGradient id="paint6_linear_63_89" x1="122.134" y1="43.8154" x2="91.4014" y2="94.0356" gradientUnits="userSpaceOnUse">
<stop stop-color="white"/>
<stop offset="0.43" stop-color="#B3DCF2"/>
<stop offset="1" stop-color="#48AAE0"/>
</linearGradient>
<linearGradient id="paint7_linear_63_89" x1="102.949" y1="62.1018" x2="89.6869" y2="84.4903" gradientUnits="userSpaceOnUse">
<stop stop-color="#6BC4D1"/>
<stop offset="0.38" stop-color="#7394BA"/>
<stop offset="1" stop-color="#804996"/>
</linearGradient>
<linearGradient id="paint8_linear_63_89" x1="124.477" y1="40.2889" x2="112.438" y2="58.6004" gradientUnits="userSpaceOnUse">
<stop stop-color="#6BC4D1"/>
<stop offset="0.38" stop-color="#7394BA"/>
<stop offset="1" stop-color="#804996"/>
</linearGradient>
</defs>
</svg>
