<svg width="266" height="266" viewBox="0 0 266 266" fill="none" xmlns="http://www.w3.org/2000/svg">
<path d="M229.264 126.955H212.375C212.051 126.955 211.741 126.826 211.512 126.597C211.283 126.368 211.154 126.057 211.154 125.733V78.5721C211.154 72.2793 208.654 66.2442 204.204 61.7945C199.755 57.3448 193.72 54.845 187.427 54.845H140.266C139.942 54.845 139.631 54.7163 139.402 54.4873C139.173 54.2583 139.045 53.9477 139.045 53.6238V36.7352C139.045 20.164 125.917 6.29164 109.346 6.00467C105.331 5.93413 101.343 6.66387 97.6128 8.1513C93.883 9.63873 90.4867 11.8541 87.6221 14.6681C84.7576 17.482 82.4821 20.8383 80.9285 24.5411C79.3749 28.2439 78.5742 32.219 78.5732 36.2345V53.6238C78.5732 53.9477 78.4445 54.2583 78.2155 54.4873C77.9865 54.7163 77.6759 54.845 77.352 54.845H30.1911C23.7811 54.8643 17.6393 57.4192 13.1067 61.9518C8.57423 66.4843 6.01933 72.6262 6 79.0362V122.009C6 122.333 6.12866 122.643 6.35767 122.872C6.58668 123.101 6.89728 123.23 7.22115 123.23H23.6518C41.5844 123.23 56.4275 138.788 56.6779 156.72C56.9343 174.958 42.3232 191.615 24.1402 191.615H7.22115C6.89728 191.615 6.58668 191.744 6.35767 191.973C6.12866 192.202 6 192.512 6 192.836V235.809C6.01933 242.219 8.57423 248.361 13.1067 252.893C17.6393 257.426 23.7811 259.981 30.1911 260H73.1635C73.4873 260 73.7979 259.871 74.0269 259.642C74.256 259.413 74.3846 259.103 74.3846 258.779V245.999C74.3846 227.511 89.4964 211.593 107.966 211.16C126.345 210.732 142.769 223.561 142.769 241.86V258.779C142.769 259.103 142.898 259.413 143.127 259.642C143.356 259.871 143.667 260 143.99 260H187.427C193.72 260 199.755 257.5 204.204 253.05C208.654 248.601 211.154 242.566 211.154 236.273V188.648C211.154 188.324 211.283 188.013 211.512 187.784C211.741 187.555 212.051 187.426 212.375 187.426H229.764C246.634 187.426 260 173.585 260 156.653C260 139.722 245.835 126.955 229.264 126.955Z" stroke="#6FFFA0" stroke-width="11" stroke-linecap="round" stroke-linejoin="round"/>
</svg>
