<svg width="99" height="100" viewBox="0 0 99 100" fill="none" xmlns="http://www.w3.org/2000/svg">
<g clip-path="url(#clip0_270_142)">
<path d="M59.8945 84.4779C59.792 85.0125 59.5291 85.5056 59.1391 85.8947C58.749 86.2839 58.2494 86.5516 57.7032 86.6642C57.157 86.7767 56.5888 86.729 56.0705 86.5271C55.5521 86.3251 55.1068 85.978 54.7909 85.5296C54.4749 85.0812 54.3025 84.5516 54.2954 84.0077C54.2883 83.4638 54.4468 82.9301 54.7509 82.474C55.055 82.0179 55.4911 81.6598 56.004 81.445C56.5169 81.2303 57.0836 81.1685 57.6326 81.2674C57.9976 81.3332 58.3457 81.4685 58.6571 81.6656C58.9684 81.8626 59.2367 82.1175 59.4468 82.4157C59.6569 82.7139 59.8046 83.0495 59.8814 83.4033C59.9583 83.7572 59.9627 84.1223 59.8945 84.4779ZM48.3891 7.64249C24.661 7.52032 6.28937 25.747 5.20604 48.3031C4.94022 53.8297 5.48189 58.7602 7.64856 63.2949C8.35073 64.0963 9.01778 64.6826 9.53939 65.2495C15.593 71.9684 24.5105 71.6313 27.3442 70.9276C15.8739 70.5855 9.91053 62.171 10.2315 50.2772C10.7581 31.1368 26.8728 15.6612 46.5233 15.8274C55.1848 15.8971 63.527 19.0218 70.0057 24.6231C70.4308 24.9926 70.7461 25.4668 70.9184 25.9959C71.0907 26.525 71.1137 27.0895 70.9849 27.6303C70.8562 28.171 70.5804 28.668 70.1866 29.0692C69.7929 29.4703 69.2955 29.7609 68.7468 29.9103C65.3614 30.785 61.0782 30.6335 60.1152 30.3501C56.9003 29.407 56.0527 32.4219 58.2896 33.2527C59.4949 33.6778 60.7768 33.8574 62.0562 33.7804C62.2681 33.7707 62.4765 33.8362 62.6427 33.9647C62.8089 34.0932 62.9218 34.276 62.9603 34.4792C62.9989 34.6825 62.9605 34.8925 62.8524 35.0704C62.7443 35.2483 62.5737 35.3819 62.3722 35.4467C59.7847 36.1931 57.1292 36.6938 54.4427 36.942C50.2298 37.3964 50.7112 40.7143 54.4728 40.6117C63.7013 40.3625 71.5254 31.5179 74.7052 29.4949C77.6643 33.4481 80.187 37.9779 81.2253 42.9377C80.6635 43.5827 75.7083 50.4385 75.964 54.8901C76.1396 57.6412 79.3695 57.7878 79.1539 53.947C79.009 52.4208 79.2465 50.8831 79.846 49.4661C79.9613 49.2269 80.1558 49.0324 80.3982 48.914C80.6406 48.7955 80.9169 48.7599 81.1826 48.8129C81.4483 48.8659 81.688 49.0045 81.8631 49.2062C82.0382 49.408 82.1386 49.6613 82.1481 49.9254C82.1481 50.3114 82.1481 50.6975 82.1481 51.0884C82.0829 63.0017 75.7684 71.4114 66.3394 76.9527C65.6332 77.3682 65.0713 77.9805 64.7261 78.7105C64.381 79.4405 64.2686 80.2546 64.4034 81.0475V81.1306C64.5183 81.7982 64.8032 82.4271 65.2321 82.9596C65.6611 83.4922 66.2203 83.9114 66.8586 84.1788C67.4968 84.4462 68.1938 84.5533 68.8856 84.4903C69.5773 84.4273 70.2418 84.1962 70.8182 83.8182C82.6647 76.1708 91.0104 63.1092 91.0856 48.7526C91.2812 26.1672 72.1172 7.75976 48.3891 7.64249Z" fill="url(#paint0_radial_270_142)"/>
<path d="M58.771 97.4125C58.1527 97.548 57.5102 97.5388 56.8963 97.3859C56.2823 97.2329 55.7142 96.9404 55.2386 96.5323C54.763 96.1242 54.3934 95.6122 54.16 95.0381C53.9266 94.4641 53.8361 93.8443 53.896 93.2296V93.1514C53.9846 92.3503 54.3251 91.5955 54.871 90.9902C55.4169 90.3849 56.1414 89.9587 56.9454 89.77C75.6379 85.3721 91.0153 68.2693 91.1206 48.7233C91.246 26.1477 72.1071 7.74022 48.379 7.62294C24.6509 7.50567 6.41467 25.7568 5.20594 48.3031C4.32824 64.6631 14.1635 69.3151 18.517 72.6819C13.5416 71.6068 3.91196 71.9244 0.175443 49.5882C0.175443 48.9432 0.140335 48.2982 0.140335 47.6336C0.206844 34.9298 5.45039 22.772 14.7175 13.8348C19.306 9.40958 24.7443 5.90823 30.7218 3.53067C36.6992 1.15312 43.0988 -0.0540794 49.5551 -0.0219942C56.0114 0.0100911 62.398 1.28083 68.3502 3.71767C74.3025 6.15451 79.7038 9.70973 84.2458 14.1803C88.7878 18.651 92.3816 23.9494 94.8219 29.7732C97.2622 35.5969 98.5012 41.832 98.4683 48.1223C98.3429 71.2306 80.4377 92.3842 58.771 97.4125ZM47.737 91.6513C46.9304 91.5062 46.0978 91.5973 45.3443 91.9132C44.5909 92.2291 43.9505 92.7556 43.5042 93.426C43.0578 94.0964 42.8255 94.8808 42.8365 95.6798C42.8476 96.4789 43.1016 97.2568 43.5664 97.9152C44.0312 98.5737 44.6859 99.0831 45.4478 99.379C46.2097 99.675 47.0446 99.7442 47.8469 99.578C48.6492 99.4117 49.3828 99.0174 49.9551 98.445C50.5275 97.8725 50.9127 97.1476 51.0622 96.3619C51.2633 95.3104 51.0283 94.2241 50.4088 93.3411C49.7892 92.4581 48.8356 91.8505 47.757 91.6513H47.737Z" fill="url(#paint1_radial_270_142)"/>
<path style="mix-blend-mode:multiply" opacity="0.37" d="M27.3442 70.9374C22.1281 70.781 18.0555 68.9535 15.1917 65.8896C4.87994 61.0031 0.496432 50.2528 0.536556 41.9067C0.290088 43.8114 0.15779 45.7285 0.140335 47.6483C0.140335 48.2982 0.140335 48.9432 0.175443 49.6029C3.91196 71.9245 13.5416 71.6068 18.517 72.6819C21.0247 71.5433 24.7762 71.5726 27.3442 70.9374Z" fill="url(#paint2_linear_270_142)"/>
<path d="M53.4095 55.4814C45.6757 65.3179 35.389 72.6867 22.0278 70.5953C8.94754 68.543 0.64195 56.1459 0.526595 41.8871C-3.12465 66.7252 12.8546 79.5718 29.2852 80.5638C43.6996 81.4385 55.7868 73.3513 62.8887 63.5343C60.5565 59.5323 55.6715 56.8398 53.4095 55.4814Z" fill="url(#paint3_radial_270_142)"/>
<path d="M58.6806 58.9508C57.0108 57.6778 55.2529 56.5186 53.4194 55.4814C45.6855 65.3179 35.3988 72.6867 22.0377 70.5953C8.94734 68.543 0.64175 56.1459 0.526395 41.8871C0.526395 41.8871 0.526395 41.936 0.526395 41.9604C-1.58511 64.6631 12.9196 75.1886 27.3541 75.9558C40.4945 76.6399 52.1605 69.3346 58.6806 58.9508Z" fill="url(#paint4_radial_270_142)"/>
<path d="M64.1226 64.2966C59.3884 62.6097 55.2909 59.5632 52.3714 55.5595C52.0143 55.0846 51.8298 54.5073 51.8471 53.9189C51.8643 53.3304 52.0823 52.7643 52.4667 52.31C56.163 47.9122 66.6604 35.5786 69.9004 32.764C73.8525 29.3435 82.1381 25.3219 83.9737 26.6803C85.8094 28.0388 84.2496 36.7709 81.9124 41.6477C80.4077 44.7506 70.6627 58.5892 67.2572 63.3047C66.9189 63.7823 66.4287 64.1382 65.8622 64.3175C65.2957 64.4967 64.6844 64.4894 64.1226 64.2966Z" fill="url(#paint5_linear_270_142)"/>
<path d="M83.9888 26.7096C83.9443 26.6797 83.8974 26.6535 83.8483 26.6314C81.7719 25.5369 73.7773 29.4461 69.9154 32.7933C66.6754 35.5933 56.1781 47.9415 52.4817 52.3393C52.0974 52.7936 51.8794 53.3597 51.8621 53.9482C51.8449 54.5366 52.0293 55.1139 52.3864 55.5889C53.3796 56.9069 54.4906 58.1366 55.7066 59.2635C55.9942 59.5274 56.2851 59.7815 56.5793 60.0258L56.7799 60.192C57.0357 60.4021 57.2815 60.6024 57.5523 60.8028L57.6978 60.9152C58.0087 61.1448 58.3197 61.3647 58.6407 61.5748L58.7811 61.6677C59.0469 61.8436 59.3177 62.0146 59.5886 62.1563L59.8343 62.3029C60.1152 62.4691 60.4011 62.6303 60.687 62.7916L60.8073 62.8551C61.1333 63.0261 61.4644 63.1923 61.8104 63.3437L62.0612 63.4561C62.317 63.5734 62.5627 63.6858 62.8386 63.7933L63.1245 63.9155C63.4655 64.0474 63.8066 64.1793 64.1276 64.3015H64.2178C64.766 64.4747 65.3566 64.4734 65.904 64.2976C66.4513 64.1219 66.9271 63.781 67.2622 63.3242C70.6677 58.6087 80.4328 44.7555 81.9174 41.6672C84.2596 36.8003 85.7993 28.1072 83.9888 26.7096ZM80.4478 41.0466C78.7476 44.0421 68.1199 57.2649 64.3131 61.6823C62.9088 63.3144 60.6719 62.3811 57.8633 60.1675C56.0928 58.77 53.4747 56.1117 55.0345 54.0887C58.5454 49.5589 68.3255 36.6683 71.41 33.7071C74.6048 30.6335 80.8892 26.9882 83.8834 26.7292C84.9417 29.0503 82.9104 36.7025 80.4478 41.0466Z" fill="url(#paint6_linear_270_142)"/>
<path d="M54.533 49.8668L48.0129 55.9163C47.9202 56.0216 47.7932 56.0927 47.6532 56.1178C47.5131 56.1428 47.3685 56.1203 47.2434 56.0539C47.1184 55.9876 47.0205 55.8814 46.9661 55.7532C46.9117 55.625 46.9041 55.4824 46.9446 55.3494L48.3339 50.7415C48.45 50.3587 48.666 50.0119 48.9609 49.7348L54.0315 44.99C54.2692 44.7674 54.5806 44.6347 54.9098 44.6159C55.239 44.5971 55.5642 44.6934 55.827 44.8874L57.6576 46.241L54.533 49.8668ZM69.143 60.6708L64.925 68.4404C64.8458 68.5557 64.8095 68.694 64.8224 68.8322C64.8352 68.9705 64.8964 69.1002 64.9956 69.1997C65.0949 69.2993 65.2262 69.3627 65.3676 69.3792C65.5091 69.3957 65.652 69.3645 65.7726 69.2906L69.9505 66.7496C70.2992 66.5389 70.5847 66.2422 70.7781 65.8896L74.1083 59.8597C74.2629 59.5768 74.3094 59.2496 74.2396 58.9364C74.1698 58.6233 73.9882 58.3444 73.7272 58.1494L71.8965 56.7958L69.143 60.6708ZM56.6395 62.9333L59.7541 60.0649L64.8297 53.5463C64.8928 53.4667 64.939 53.3757 64.9656 53.2786C64.9922 53.1815 64.9987 53.0801 64.9847 52.9805C64.9707 52.8809 64.9365 52.785 64.884 52.6984C64.8316 52.6118 64.762 52.5363 64.6793 52.4762L63.8417 51.8556C63.675 51.7337 63.4656 51.6808 63.2591 51.7082C63.0526 51.7356 62.8655 51.8413 62.7383 52.0022L57.6326 58.555L55.6715 62.2101C55.608 62.3358 55.5912 62.4791 55.6239 62.6156C55.6566 62.752 55.7369 62.8732 55.8511 62.9585C55.9652 63.0438 56.1062 63.0879 56.2499 63.0833C56.3937 63.0787 56.5314 63.0257 56.6395 62.9333Z" fill="url(#paint7_linear_270_142)"/>
<path d="M75.1716 33.3748C74.3621 33.4124 73.5822 33.6831 72.9305 34.1526C72.2789 34.6221 71.7848 35.2693 71.5107 36.0124C71.2366 36.7555 71.1949 37.5611 71.3907 38.3274C71.5866 39.0936 72.0113 39.786 72.6111 40.3171C73.2108 40.8481 73.9588 41.194 74.7603 41.3108C75.5619 41.4277 76.381 41.3104 77.1141 40.9737C77.8472 40.637 78.4613 40.0961 78.8789 39.4193C79.2964 38.7426 79.4986 37.9604 79.4598 37.1716C79.4078 36.1141 78.9269 35.1201 78.1227 34.408C77.3185 33.696 76.257 33.3244 75.1716 33.3748ZM75.5127 40.3527C74.9051 40.3811 74.3027 40.2333 73.7814 39.9279C73.2601 39.6226 72.8436 39.1735 72.5843 38.6374C72.3251 38.1014 72.2349 37.5025 72.3251 36.9165C72.4153 36.3304 72.6819 35.7837 73.0911 35.3453C73.5004 34.9069 74.0338 34.5966 74.6241 34.4537C75.2143 34.3108 75.8348 34.3417 76.4071 34.5424C76.9793 34.7432 77.4776 35.1048 77.8389 35.5815C78.2002 36.0582 78.4082 36.6286 78.4367 37.2205C78.4569 37.6135 78.3972 38.0065 78.261 38.3769C78.1248 38.7473 77.9148 39.0879 77.6431 39.3789C77.3714 39.67 77.0433 39.9059 76.6776 40.073C76.312 40.2401 75.9161 40.3352 75.5127 40.3527Z" fill="url(#paint8_linear_270_142)"/>
</g>
<defs>
<radialGradient id="paint0_radial_270_142" cx="0" cy="0" r="1" gradientUnits="userSpaceOnUse" gradientTransform="translate(48.1383 47.1841) scale(41.8088 40.7339)">
<stop stop-color="#00FF1E"/>
<stop offset="0.08" stop-color="#0BFF3A"/>
<stop offset="0.27" stop-color="#21FF71"/>
<stop offset="0.43" stop-color="#31FF9A"/>
<stop offset="0.55" stop-color="#3BFFB3"/>
<stop offset="0.63" stop-color="#3FFFBC"/>
<stop offset="0.69" stop-color="#3DFBBB"/>
<stop offset="0.75" stop-color="#36EDBA"/>
<stop offset="0.82" stop-color="#2CD7B7"/>
<stop offset="0.89" stop-color="#1DB8B2"/>
<stop offset="0.96" stop-color="#0A91AD"/>
<stop offset="1" stop-color="#007CAA"/>
</radialGradient>
<radialGradient id="paint1_radial_270_142" cx="0" cy="0" r="1" gradientUnits="userSpaceOnUse" gradientTransform="translate(48.7659 49.6649) rotate(10.1458) scale(49.8424 48.6415)">
<stop stop-color="#00FF1E"/>
<stop offset="0.08" stop-color="#0BFF3A"/>
<stop offset="0.27" stop-color="#21FF71"/>
<stop offset="0.43" stop-color="#31FF9A"/>
<stop offset="0.55" stop-color="#3BFFB3"/>
<stop offset="0.63" stop-color="#3FFFBC"/>
<stop offset="0.69" stop-color="#3DFBBB"/>
<stop offset="0.75" stop-color="#36EDBA"/>
<stop offset="0.82" stop-color="#2CD7B7"/>
<stop offset="0.89" stop-color="#1DB8B2"/>
<stop offset="0.96" stop-color="#0A91AD"/>
<stop offset="1" stop-color="#007CAA"/>
</radialGradient>
<linearGradient id="paint2_linear_270_142" x1="6.99144" y1="42.6005" x2="17.9004" y2="75.0317" gradientUnits="userSpaceOnUse">
<stop stop-color="white"/>
<stop offset="1" stop-color="#212120"/>
</linearGradient>
<radialGradient id="paint3_radial_270_142" cx="0" cy="0" r="1" gradientUnits="userSpaceOnUse" gradientTransform="translate(63.6519 55.4128) rotate(10.1458) scale(74.5538 72.7575)">
<stop stop-color="#B894C4"/>
<stop offset="0.4" stop-color="#83A5D6"/>
<stop offset="1" stop-color="#38BEEF"/>
</radialGradient>
<radialGradient id="paint4_radial_270_142" cx="0" cy="0" r="1" gradientUnits="userSpaceOnUse" gradientTransform="translate(53.7799 60.4232) rotate(10.1458) scale(57.1025 55.7267)">
<stop stop-color="#F3D2E5"/>
<stop offset="0.46" stop-color="#A7CAE5"/>
<stop offset="1" stop-color="#49BFE4"/>
</radialGradient>
<linearGradient id="paint5_linear_270_142" x1="74.0389" y1="39.8802" x2="45.9788" y2="77.8804" gradientUnits="userSpaceOnUse">
<stop stop-color="white"/>
<stop offset="0.43" stop-color="#B3E4F4"/>
<stop offset="1" stop-color="#49BFE4"/>
</linearGradient>
<linearGradient id="paint6_linear_270_142" x1="78.3494" y1="35.2075" x2="51.5493" y2="70.159" gradientUnits="userSpaceOnUse">
<stop stop-color="white"/>
<stop offset="0.43" stop-color="#B3DCF2"/>
<stop offset="1" stop-color="#48AAE0"/>
</linearGradient>
<linearGradient id="paint7_linear_270_142" x1="66.0385" y1="49.9108" x2="54.4002" y2="65.5906" gradientUnits="userSpaceOnUse">
<stop stop-color="#6BC4D1"/>
<stop offset="0.38" stop-color="#7394BA"/>
<stop offset="1" stop-color="#804996"/>
</linearGradient>
<linearGradient id="paint8_linear_270_142" x1="79.853" y1="32.3714" x2="69.5038" y2="44.9336" gradientUnits="userSpaceOnUse">
<stop stop-color="#6BC4D1"/>
<stop offset="0.38" stop-color="#7394BA"/>
<stop offset="1" stop-color="#804996"/>
</linearGradient>
<clipPath id="clip0_270_142">
<rect width="98.4684" height="99.67" fill="white"/>
</clipPath>
</defs>
</svg>
