<svg width="295" height="180" viewBox="0 0 295 180" fill="none" xmlns="http://www.w3.org/2000/svg">
<path fill-rule="evenodd" clip-rule="evenodd" d="M294.993 68.1051C294.993 105.391 258.291 136 213.13 136H140.351C102.529 136 71.8 110.321 71.8 79.0955C72.7382 42.5243 110.061 17.8012 151.921 23.0128C207.058 -26.2708 295.918 10.5452 294.993 68.1051ZM140.226 32.6679C109.372 32.6679 84.2413 53.5194 84.2413 79.0955C84.2413 104.672 109.372 125.626 140.351 125.626H169.711C164.113 122.647 158.888 118.538 154.284 114.635H140.35C116.339 114.635 96.8067 98.5088 96.8067 78.6845C96.8067 58.8602 116.339 42.8367 140.35 42.8367C167.801 43.9524 172.509 56.136 194.096 73.0352C200.116 77.8059 208.516 70.9196 203.053 65.8452C175.431 41.8372 168.316 33.9215 140.226 32.6679ZM282.427 67.7966C282.056 15.8954 207.986 -7.1217 165.854 25.9915C170.084 27.4293 174.066 29.0731 177.798 31.1275C215.212 7.01407 269.336 28.0131 269.862 67.7966C271.289 106.124 213.134 132.102 172.946 100.871L139.728 73.4463C133.799 68.7637 125.171 75.4956 130.771 80.6364L164.113 108.267C205.811 142.244 280.082 122.299 282.427 67.7966Z" fill="black" fill-opacity="0.62"/>
<path d="M16.464 172.2C16.624 172.504 16.704 172.776 16.704 173.016C16.72 173.24 16.656 173.44 16.512 173.616C16.368 173.776 16.128 173.944 15.792 174.12C15.28 174.36 14.88 174.424 14.592 174.312C14.32 174.2 14.064 173.888 13.824 173.376L8.472 162.072L3.144 173.376C2.904 173.872 2.64 174.168 2.352 174.264C2.064 174.376 1.664 174.32 1.152 174.096C0.832 173.936 0.592 173.768 0.432 173.592C0.288 173.416 0.224 173.208 0.24 172.968C0.272 172.712 0.376 172.408 0.552 172.056L7.152 158.304C7.28 158.048 7.464 157.848 7.704 157.704C7.96 157.544 8.224 157.464 8.496 157.464C8.688 157.464 8.864 157.496 9.024 157.56C9.184 157.624 9.328 157.72 9.456 157.848C9.6 157.976 9.72 158.136 9.816 158.328L16.464 172.2ZM4.2 169.872L5.352 167.4H11.616L12.768 169.872H4.2ZM19.6573 174.216C19.2413 174.216 18.9293 174.144 18.7213 174C18.5133 173.872 18.3773 173.696 18.3133 173.472C18.2493 173.248 18.2173 173.008 18.2173 172.752V158.88C18.2173 158.624 18.2413 158.392 18.2893 158.184C18.3533 157.96 18.4893 157.784 18.6973 157.656C18.9053 157.512 19.2333 157.44 19.6813 157.44L24.1933 157.464C25.3613 157.464 26.4333 157.664 27.4093 158.064C28.4013 158.464 29.2573 159.032 29.9773 159.768C30.6973 160.504 31.2493 161.384 31.6333 162.408C32.0333 163.416 32.2333 164.528 32.2333 165.744C32.2333 166.992 32.0333 168.136 31.6333 169.176C31.2333 170.216 30.6733 171.112 29.9533 171.864C29.2333 172.616 28.3773 173.2 27.3853 173.616C26.4093 174.016 25.3213 174.216 24.1213 174.216H19.6573ZM21.1213 171.312H24.1933C25.2173 171.312 26.1133 171.088 26.8813 170.64C27.6493 170.176 28.2413 169.536 28.6573 168.72C29.0893 167.904 29.3053 166.952 29.3053 165.864C29.3053 164.76 29.0893 163.8 28.6573 162.984C28.2413 162.152 27.6413 161.512 26.8573 161.064C26.0893 160.6 25.1933 160.368 24.1693 160.368H21.1213V171.312ZM42.1138 174.432C40.9618 174.432 39.8818 174.216 38.8738 173.784C37.8818 173.336 37.0018 172.728 36.2338 171.96C35.4658 171.176 34.8658 170.28 34.4338 169.272C34.0018 168.248 33.7858 167.152 33.7858 165.984C33.7858 164.784 33.9938 163.664 34.4098 162.624C34.8418 161.568 35.4258 160.648 36.1618 159.864C36.9138 159.064 37.7778 158.44 38.7538 157.992C39.7298 157.544 40.7778 157.32 41.8978 157.32C43.0658 157.32 44.1458 157.544 45.1378 157.992C46.1458 158.424 47.0258 159.032 47.7778 159.816C48.5298 160.6 49.1218 161.512 49.5538 162.552C49.9858 163.576 50.2018 164.688 50.2018 165.888C50.2018 167.056 49.9938 168.16 49.5778 169.2C49.1618 170.224 48.5778 171.136 47.8258 171.936C47.0738 172.72 46.2098 173.336 45.2338 173.784C44.2738 174.216 43.2338 174.432 42.1138 174.432ZM41.9938 171.504C42.7298 171.504 43.4178 171.36 44.0578 171.072C44.6978 170.784 45.2578 170.384 45.7378 169.872C46.2338 169.36 46.6178 168.768 46.8898 168.096C47.1618 167.408 47.2978 166.672 47.2978 165.888C47.2978 165.104 47.1538 164.376 46.8658 163.704C46.5938 163.016 46.2098 162.416 45.7138 161.904C45.2338 161.376 44.6738 160.968 44.0338 160.68C43.4098 160.392 42.7298 160.248 41.9938 160.248C41.2738 160.248 40.5938 160.392 39.9538 160.68C39.3138 160.968 38.7458 161.376 38.2498 161.904C37.7698 162.416 37.3938 163.016 37.1218 163.704C36.8498 164.392 36.7138 165.12 36.7138 165.888C36.7138 166.656 36.8498 167.384 37.1218 168.072C37.4098 168.76 37.7938 169.36 38.2738 169.872C38.7538 170.384 39.3058 170.784 39.9298 171.072C40.5698 171.36 41.2578 171.504 41.9938 171.504ZM53.2628 174.216C52.8468 174.216 52.5348 174.144 52.3268 174C52.1188 173.856 51.9828 173.664 51.9188 173.424C51.8708 173.184 51.8468 172.92 51.8468 172.632V159C51.8468 158.712 51.8788 158.456 51.9428 158.232C52.0068 157.992 52.1348 157.8 52.3268 157.656C52.5348 157.512 52.8548 157.44 53.2868 157.44H59.6228C60.5508 157.44 61.3668 157.656 62.0708 158.088C62.7908 158.52 63.3508 159.096 63.7508 159.816C64.1508 160.52 64.3508 161.296 64.3508 162.144C64.3508 162.528 64.3028 162.912 64.2068 163.296C64.1268 163.664 63.9908 164.008 63.7988 164.328C63.6228 164.648 63.3988 164.936 63.1268 165.192C63.4948 165.48 63.8148 165.832 64.0868 166.248C64.3588 166.664 64.5588 167.12 64.6868 167.616C64.8308 168.096 64.9028 168.6 64.9028 169.128C64.8868 169.848 64.7508 170.52 64.4948 171.144C64.2388 171.752 63.8788 172.288 63.4148 172.752C62.9668 173.216 62.4388 173.576 61.8308 173.832C61.2228 174.088 60.5668 174.216 59.8628 174.216H53.2628ZM54.7508 171.384H59.6228C60.0868 171.384 60.4948 171.296 60.8468 171.12C61.2148 170.944 61.5028 170.672 61.7108 170.304C61.9188 169.936 62.0228 169.456 62.0228 168.864C62.0228 168.4 61.9588 168.032 61.8308 167.76C61.7188 167.472 61.5588 167.248 61.3508 167.088C61.1588 166.928 60.9348 166.816 60.6788 166.752C60.4388 166.688 60.1988 166.656 59.9588 166.656C59.7188 166.64 59.4948 166.632 59.2868 166.632H58.1828C57.7668 166.632 57.4628 166.536 57.2708 166.344C57.0788 166.136 56.9828 165.8 56.9828 165.336C56.9828 164.904 57.0868 164.6 57.2948 164.424C57.5028 164.232 57.8228 164.136 58.2548 164.136H59.3348C59.5428 164.136 59.7668 164.128 60.0068 164.112C60.2628 164.096 60.5028 164.04 60.7268 163.944C60.9508 163.832 61.1348 163.656 61.2788 163.416C61.4228 163.176 61.4948 162.824 61.4948 162.36C61.4948 161.64 61.3028 161.12 60.9188 160.8C60.5508 160.464 59.9108 160.296 58.9988 160.296H54.7508V171.384ZM68.7885 174.24C68.3405 174.24 68.0125 174.168 67.8045 174.024C67.5965 173.896 67.4685 173.72 67.4205 173.496C67.3725 173.272 67.3485 173.024 67.3485 172.752V158.904C67.3485 158.36 67.4525 157.984 67.6605 157.776C67.8845 157.568 68.2845 157.464 68.8605 157.464H78.2205C78.4925 157.464 78.7325 157.496 78.9405 157.56C79.1645 157.608 79.3405 157.736 79.4685 157.944C79.5965 158.136 79.6605 158.464 79.6605 158.928C79.6605 159.376 79.5885 159.704 79.4445 159.912C79.3165 160.12 79.1405 160.248 78.9165 160.296C78.7085 160.344 78.4685 160.368 78.1965 160.368H70.2525V164.4H75.7245C75.9965 164.4 76.2285 164.432 76.4205 164.496C76.6125 164.544 76.7645 164.656 76.8765 164.832C76.9885 165.008 77.0445 165.304 77.0445 165.72C77.0445 166.12 76.9885 166.416 76.8765 166.608C76.7645 166.784 76.6045 166.896 76.3965 166.944C76.1885 166.976 75.9485 166.992 75.6765 166.992H70.2525V171.312H78.2205C78.4925 171.312 78.7325 171.344 78.9405 171.408C79.1645 171.456 79.3405 171.584 79.4685 171.792C79.5965 172 79.6605 172.328 79.6605 172.776C79.6605 173.224 79.5885 173.552 79.4445 173.76C79.3165 173.968 79.1405 174.096 78.9165 174.144C78.7085 174.208 78.4685 174.24 78.1965 174.24H68.7885ZM95.9861 174.336C95.2021 174.336 94.4101 174.224 93.6101 174C92.8101 173.76 92.0421 173.408 91.3061 172.944C90.5701 172.464 89.9141 171.88 89.3381 171.192C88.7781 170.488 88.3301 169.68 87.9941 168.768C87.6581 167.84 87.4901 166.816 87.4901 165.696C87.4901 164.592 87.6581 163.6 87.9941 162.72C88.3301 161.824 88.7781 161.04 89.3381 160.368C89.9141 159.696 90.5621 159.136 91.2821 158.688C92.0181 158.24 92.7861 157.904 93.5861 157.68C94.4021 157.44 95.2101 157.312 96.0101 157.296C96.8261 157.296 97.5301 157.384 98.1221 157.56C98.7141 157.736 99.1941 157.928 99.5621 158.136C99.9301 158.328 100.178 158.464 100.306 158.544C100.562 158.704 100.802 158.888 101.026 159.096C101.266 159.288 101.394 159.528 101.41 159.816C101.426 160.008 101.402 160.184 101.338 160.344C101.274 160.488 101.186 160.64 101.074 160.8C100.882 161.072 100.69 161.272 100.498 161.4C100.306 161.528 100.114 161.592 99.9221 161.592C99.7461 161.592 99.5781 161.544 99.4181 161.448C99.2741 161.352 99.0901 161.232 98.8661 161.088C98.7701 161.024 98.5941 160.928 98.3381 160.8C98.0981 160.656 97.7701 160.528 97.3541 160.416C96.9541 160.304 96.4661 160.248 95.8901 160.248C95.2021 160.248 94.5301 160.368 93.8741 160.608C93.2181 160.848 92.6261 161.208 92.0981 161.688C91.5861 162.152 91.1781 162.736 90.8741 163.44C90.5701 164.128 90.4181 164.92 90.4181 165.816C90.4181 166.712 90.5701 167.512 90.8741 168.216C91.1781 168.904 91.5861 169.488 92.0981 169.968C92.6261 170.432 93.2181 170.784 93.8741 171.024C94.5301 171.264 95.2021 171.384 95.8901 171.384C96.4341 171.384 96.8981 171.336 97.2821 171.24C97.6821 171.128 98.0181 171 98.2901 170.856C98.5781 170.696 98.7941 170.576 98.9381 170.496C99.1141 170.384 99.2821 170.28 99.4421 170.184C99.6021 170.088 99.7701 170.04 99.9461 170.04C100.138 170.04 100.322 170.104 100.498 170.232C100.69 170.36 100.874 170.568 101.05 170.856C101.162 171.032 101.25 171.2 101.314 171.36C101.378 171.52 101.402 171.688 101.386 171.864C101.37 172.152 101.242 172.4 101.002 172.608C100.778 172.8 100.538 172.968 100.282 173.112C100.154 173.192 99.9061 173.336 99.5381 173.544C99.1861 173.736 98.7141 173.912 98.1221 174.072C97.5301 174.248 96.8181 174.336 95.9861 174.336ZM105.233 174.216C104.785 174.216 104.457 174.152 104.249 174.024C104.057 173.896 103.929 173.72 103.865 173.496C103.817 173.256 103.793 173.008 103.793 172.752V158.904C103.793 158.648 103.825 158.416 103.889 158.208C103.953 157.984 104.081 157.808 104.273 157.68C104.481 157.536 104.809 157.464 105.257 157.464H110.393C111.129 157.464 111.825 157.584 112.481 157.824C113.153 158.048 113.753 158.4 114.281 158.88C114.809 159.344 115.225 159.936 115.529 160.656C115.849 161.36 116.009 162.184 116.009 163.128C116.009 163.752 115.913 164.376 115.721 165C115.529 165.608 115.241 166.176 114.857 166.704C114.489 167.216 114.017 167.656 113.441 168.024C112.865 168.392 112.185 168.632 111.401 168.744H106.697V172.776C106.697 173.032 106.665 173.272 106.601 173.496C106.553 173.72 106.425 173.896 106.217 174.024C106.025 174.152 105.697 174.216 105.233 174.216ZM115.457 173.856C114.993 174.176 114.609 174.296 114.305 174.216C114.017 174.136 113.729 173.88 113.441 173.448L109.409 167.352L112.649 166.92L115.841 171.768C116.065 172.088 116.201 172.36 116.249 172.584C116.297 172.808 116.257 173.016 116.129 173.208C116.001 173.4 115.777 173.616 115.457 173.856ZM106.697 165.864H110.753C111.041 165.864 111.321 165.816 111.593 165.72C111.881 165.608 112.137 165.44 112.361 165.216C112.585 164.976 112.761 164.688 112.889 164.352C113.033 164 113.105 163.584 113.105 163.104C113.105 162.528 112.993 162.04 112.769 161.64C112.545 161.224 112.225 160.912 111.809 160.704C111.409 160.48 110.921 160.368 110.345 160.368H106.697V165.864ZM120.117 174.24C119.669 174.24 119.341 174.168 119.133 174.024C118.925 173.896 118.797 173.72 118.749 173.496C118.701 173.272 118.677 173.024 118.677 172.752V158.904C118.677 158.36 118.781 157.984 118.989 157.776C119.213 157.568 119.613 157.464 120.189 157.464H129.549C129.821 157.464 130.061 157.496 130.269 157.56C130.493 157.608 130.669 157.736 130.797 157.944C130.925 158.136 130.989 158.464 130.989 158.928C130.989 159.376 130.917 159.704 130.773 159.912C130.645 160.12 130.469 160.248 130.245 160.296C130.037 160.344 129.797 160.368 129.525 160.368H121.581V164.4H127.053C127.325 164.4 127.557 164.432 127.749 164.496C127.941 164.544 128.093 164.656 128.205 164.832C128.317 165.008 128.373 165.304 128.373 165.72C128.373 166.12 128.317 166.416 128.205 166.608C128.093 166.784 127.933 166.896 127.725 166.944C127.517 166.976 127.277 166.992 127.005 166.992H121.581V171.312H129.549C129.821 171.312 130.061 171.344 130.269 171.408C130.493 171.456 130.669 171.584 130.797 171.792C130.925 172 130.989 172.328 130.989 172.776C130.989 173.224 130.917 173.552 130.773 173.76C130.645 173.968 130.469 174.096 130.245 174.144C130.037 174.208 129.797 174.24 129.525 174.24H120.117ZM148.417 172.2C148.577 172.504 148.657 172.776 148.657 173.016C148.673 173.24 148.609 173.44 148.465 173.616C148.321 173.776 148.081 173.944 147.745 174.12C147.233 174.36 146.833 174.424 146.545 174.312C146.273 174.2 146.017 173.888 145.777 173.376L140.425 162.072L135.097 173.376C134.857 173.872 134.593 174.168 134.305 174.264C134.017 174.376 133.617 174.32 133.105 174.096C132.785 173.936 132.545 173.768 132.385 173.592C132.241 173.416 132.177 173.208 132.193 172.968C132.225 172.712 132.329 172.408 132.505 172.056L139.105 158.304C139.233 158.048 139.417 157.848 139.657 157.704C139.913 157.544 140.177 157.464 140.449 157.464C140.641 157.464 140.817 157.496 140.977 157.56C141.137 157.624 141.281 157.72 141.409 157.848C141.553 157.976 141.673 158.136 141.769 158.328L148.417 172.2ZM136.153 169.872L137.305 167.4H143.569L144.721 169.872H136.153ZM158.198 157.44C158.438 157.44 158.646 157.464 158.822 157.512C159.014 157.56 159.166 157.68 159.278 157.872C159.39 158.048 159.446 158.336 159.446 158.736C159.446 159.136 159.39 159.432 159.278 159.624C159.166 159.8 159.014 159.912 158.822 159.96C158.63 159.992 158.414 160.008 158.174 160.008H153.758V172.8C153.758 173.072 153.726 173.32 153.662 173.544C153.614 173.752 153.486 173.92 153.278 174.048C153.086 174.176 152.758 174.24 152.294 174.24C151.862 174.24 151.542 174.168 151.334 174.024C151.126 173.896 150.998 173.728 150.95 173.52C150.902 173.296 150.878 173.048 150.878 172.776V160.008H146.414C146.19 160.008 145.982 159.984 145.79 159.936C145.598 159.888 145.438 159.776 145.31 159.6C145.198 159.424 145.142 159.136 145.142 158.736C145.142 158.336 145.198 158.048 145.31 157.872C145.422 157.68 145.574 157.56 145.766 157.512C145.974 157.464 146.19 157.44 146.414 157.44H158.198ZM162.86 174.24C162.412 174.24 162.084 174.168 161.876 174.024C161.668 173.896 161.54 173.72 161.492 173.496C161.444 173.272 161.42 173.024 161.42 172.752V158.904C161.42 158.648 161.444 158.408 161.492 158.184C161.556 157.96 161.684 157.784 161.876 157.656C162.084 157.528 162.42 157.464 162.884 157.464C163.332 157.464 163.652 157.528 163.844 157.656C164.052 157.784 164.18 157.96 164.228 158.184C164.292 158.408 164.324 158.656 164.324 158.928V172.776C164.324 173.048 164.292 173.296 164.228 173.52C164.18 173.728 164.052 173.896 163.844 174.024C163.636 174.168 163.308 174.24 162.86 174.24ZM170.666 174.216C170.298 174.216 169.986 174.152 169.73 174.024C169.49 173.912 169.306 173.712 169.178 173.424L163.226 159.384C163.018 158.888 162.978 158.52 163.106 158.28C163.234 158.04 163.53 157.8 163.994 157.56C164.314 157.384 164.594 157.296 164.834 157.296C165.074 157.28 165.274 157.352 165.434 157.512C165.61 157.656 165.762 157.896 165.89 158.232L170.642 170.136L175.346 158.352C175.49 158.032 175.642 157.784 175.802 157.608C175.962 157.416 176.17 157.32 176.426 157.32C176.682 157.304 176.986 157.392 177.338 157.584C177.898 157.856 178.202 158.136 178.25 158.424C178.298 158.712 178.218 159.08 178.01 159.528L172.106 173.424C171.994 173.664 171.81 173.856 171.554 174C171.298 174.144 171.002 174.216 170.666 174.216ZM182.32 174.24C181.872 174.24 181.544 174.168 181.336 174.024C181.128 173.896 181 173.72 180.952 173.496C180.904 173.272 180.88 173.024 180.88 172.752V158.904C180.88 158.36 180.984 157.984 181.192 157.776C181.416 157.568 181.816 157.464 182.392 157.464H191.752C192.024 157.464 192.264 157.496 192.472 157.56C192.696 157.608 192.872 157.736 193 157.944C193.128 158.136 193.192 158.464 193.192 158.928C193.192 159.376 193.12 159.704 192.976 159.912C192.848 160.12 192.672 160.248 192.448 160.296C192.24 160.344 192 160.368 191.728 160.368H183.784V164.4H189.256C189.528 164.4 189.76 164.432 189.952 164.496C190.144 164.544 190.296 164.656 190.408 164.832C190.52 165.008 190.576 165.304 190.576 165.72C190.576 166.12 190.52 166.416 190.408 166.608C190.296 166.784 190.136 166.896 189.928 166.944C189.72 166.976 189.48 166.992 189.208 166.992H183.784V171.312H191.752C192.024 171.312 192.264 171.344 192.472 171.408C192.696 171.456 192.872 171.584 193 171.792C193.128 172 193.192 172.328 193.192 172.776C193.192 173.224 193.12 173.552 192.976 173.76C192.848 173.968 192.672 174.096 192.448 174.144C192.24 174.208 192 174.24 191.728 174.24H182.32ZM209.517 174.336C208.733 174.336 207.941 174.224 207.141 174C206.341 173.76 205.573 173.408 204.837 172.944C204.101 172.464 203.445 171.88 202.869 171.192C202.309 170.488 201.861 169.68 201.525 168.768C201.189 167.84 201.021 166.816 201.021 165.696C201.021 164.592 201.189 163.6 201.525 162.72C201.861 161.824 202.309 161.04 202.869 160.368C203.445 159.696 204.093 159.136 204.813 158.688C205.549 158.24 206.317 157.904 207.117 157.68C207.933 157.44 208.741 157.312 209.541 157.296C210.357 157.296 211.061 157.384 211.653 157.56C212.245 157.736 212.725 157.928 213.093 158.136C213.461 158.328 213.709 158.464 213.837 158.544C214.093 158.704 214.333 158.888 214.557 159.096C214.797 159.288 214.925 159.528 214.941 159.816C214.957 160.008 214.933 160.184 214.869 160.344C214.805 160.488 214.717 160.64 214.605 160.8C214.413 161.072 214.221 161.272 214.029 161.4C213.837 161.528 213.645 161.592 213.453 161.592C213.277 161.592 213.109 161.544 212.949 161.448C212.805 161.352 212.621 161.232 212.397 161.088C212.301 161.024 212.125 160.928 211.869 160.8C211.629 160.656 211.301 160.528 210.885 160.416C210.485 160.304 209.997 160.248 209.421 160.248C208.733 160.248 208.061 160.368 207.405 160.608C206.749 160.848 206.157 161.208 205.629 161.688C205.117 162.152 204.709 162.736 204.405 163.44C204.101 164.128 203.949 164.92 203.949 165.816C203.949 166.712 204.101 167.512 204.405 168.216C204.709 168.904 205.117 169.488 205.629 169.968C206.157 170.432 206.749 170.784 207.405 171.024C208.061 171.264 208.733 171.384 209.421 171.384C209.965 171.384 210.429 171.336 210.813 171.24C211.213 171.128 211.549 171 211.821 170.856C212.109 170.696 212.325 170.576 212.469 170.496C212.645 170.384 212.813 170.28 212.973 170.184C213.133 170.088 213.301 170.04 213.477 170.04C213.669 170.04 213.853 170.104 214.029 170.232C214.221 170.36 214.405 170.568 214.581 170.856C214.693 171.032 214.781 171.2 214.845 171.36C214.909 171.52 214.933 171.688 214.917 171.864C214.901 172.152 214.773 172.4 214.533 172.608C214.309 172.8 214.069 172.968 213.813 173.112C213.685 173.192 213.437 173.336 213.069 173.544C212.717 173.736 212.245 173.912 211.653 174.072C211.061 174.248 210.349 174.336 209.517 174.336ZM218.764 174.24C218.3 174.24 217.964 174.168 217.756 174.024C217.548 173.896 217.412 173.72 217.348 173.496C217.3 173.272 217.276 173.032 217.276 172.776V158.928C217.276 158.656 217.3 158.408 217.348 158.184C217.412 157.96 217.54 157.784 217.732 157.656C217.94 157.528 218.276 157.464 218.74 157.464C219.188 157.464 219.508 157.528 219.7 157.656C219.908 157.784 220.036 157.96 220.084 158.184C220.148 158.408 220.18 158.656 220.18 158.928V171.648H227.5C227.74 171.648 227.956 171.672 228.148 171.72C228.34 171.752 228.492 171.864 228.604 172.056C228.716 172.232 228.772 172.52 228.772 172.92C228.772 173.32 228.716 173.616 228.604 173.808C228.492 173.984 228.34 174.096 228.148 174.144C227.956 174.208 227.74 174.24 227.5 174.24H218.764ZM238.169 174.432C237.017 174.432 235.937 174.216 234.929 173.784C233.937 173.336 233.057 172.728 232.289 171.96C231.521 171.176 230.921 170.28 230.489 169.272C230.057 168.248 229.841 167.152 229.841 165.984C229.841 164.784 230.049 163.664 230.465 162.624C230.897 161.568 231.481 160.648 232.217 159.864C232.969 159.064 233.833 158.44 234.809 157.992C235.785 157.544 236.833 157.32 237.953 157.32C239.121 157.32 240.201 157.544 241.193 157.992C242.201 158.424 243.081 159.032 243.833 159.816C244.585 160.6 245.177 161.512 245.609 162.552C246.041 163.576 246.257 164.688 246.257 165.888C246.257 167.056 246.049 168.16 245.633 169.2C245.217 170.224 244.633 171.136 243.881 171.936C243.129 172.72 242.265 173.336 241.289 173.784C240.329 174.216 239.289 174.432 238.169 174.432ZM238.049 171.504C238.785 171.504 239.473 171.36 240.113 171.072C240.753 170.784 241.313 170.384 241.793 169.872C242.289 169.36 242.673 168.768 242.945 168.096C243.217 167.408 243.353 166.672 243.353 165.888C243.353 165.104 243.209 164.376 242.921 163.704C242.649 163.016 242.265 162.416 241.769 161.904C241.289 161.376 240.729 160.968 240.089 160.68C239.465 160.392 238.785 160.248 238.049 160.248C237.329 160.248 236.649 160.392 236.009 160.68C235.369 160.968 234.801 161.376 234.305 161.904C233.825 162.416 233.449 163.016 233.177 163.704C232.905 164.392 232.769 165.12 232.769 165.888C232.769 166.656 232.905 167.384 233.177 168.072C233.465 168.76 233.849 169.36 234.329 169.872C234.809 170.384 235.361 170.784 235.985 171.072C236.625 171.36 237.313 171.504 238.049 171.504ZM255.149 174.36C254.029 174.36 253.029 174.16 252.149 173.76C251.285 173.344 250.557 172.776 249.965 172.056C249.373 171.32 248.925 170.488 248.621 169.56C248.317 168.616 248.165 167.616 248.165 166.56V158.904C248.165 158.632 248.189 158.392 248.237 158.184C248.301 157.96 248.429 157.784 248.621 157.656C248.829 157.512 249.165 157.44 249.629 157.44C250.093 157.44 250.421 157.512 250.613 157.656C250.821 157.784 250.949 157.96 250.997 158.184C251.061 158.392 251.093 158.64 251.093 158.928V166.56C251.093 167.44 251.237 168.256 251.525 169.008C251.829 169.744 252.285 170.336 252.893 170.784C253.501 171.232 254.277 171.456 255.221 171.456C256.069 171.456 256.797 171.256 257.405 170.856C258.013 170.456 258.477 169.888 258.797 169.152C259.133 168.416 259.301 167.544 259.301 166.536V158.784C259.301 158.528 259.325 158.304 259.373 158.112C259.437 157.92 259.573 157.76 259.781 157.632C259.989 157.504 260.317 157.44 260.765 157.44C261.229 157.44 261.557 157.512 261.749 157.656C261.957 157.784 262.085 157.96 262.133 158.184C262.181 158.408 262.205 158.656 262.205 158.928V166.608C262.205 167.664 262.053 168.664 261.749 169.608C261.445 170.536 260.989 171.36 260.381 172.08C259.773 172.784 259.029 173.344 258.149 173.76C257.285 174.16 256.285 174.36 255.149 174.36ZM266.314 174.216C265.898 174.216 265.586 174.144 265.378 174C265.17 173.872 265.034 173.696 264.97 173.472C264.906 173.248 264.874 173.008 264.874 172.752V158.88C264.874 158.624 264.898 158.392 264.946 158.184C265.01 157.96 265.146 157.784 265.354 157.656C265.562 157.512 265.89 157.44 266.338 157.44L270.85 157.464C272.018 157.464 273.09 157.664 274.066 158.064C275.058 158.464 275.914 159.032 276.634 159.768C277.354 160.504 277.906 161.384 278.29 162.408C278.69 163.416 278.89 164.528 278.89 165.744C278.89 166.992 278.69 168.136 278.29 169.176C277.89 170.216 277.33 171.112 276.61 171.864C275.89 172.616 275.034 173.2 274.042 173.616C273.066 174.016 271.978 174.216 270.778 174.216H266.314ZM267.778 171.312H270.85C271.874 171.312 272.77 171.088 273.538 170.64C274.306 170.176 274.898 169.536 275.314 168.72C275.746 167.904 275.962 166.952 275.962 165.864C275.962 164.76 275.746 163.8 275.314 162.984C274.898 162.152 274.298 161.512 273.514 161.064C272.746 160.6 271.85 160.368 270.826 160.368H267.778V171.312Z" fill="#1A1111" fill-opacity="0.62"/>
</svg>
