<svg width="615" height="137" viewBox="0 0 615 137" fill="none" xmlns="http://www.w3.org/2000/svg">
<path d="M79.494 9.67573C76.4052 8.24773 67.5516 9.13073 56.9184 11.8737C38.3088 22.4737 22.6032 38.0907 21.5064 63.1697C21.3072 63.7697 19.4724 63.0877 19.1088 62.9027C14.0832 54.8757 12.0924 46.4237 16.2888 34.2307C17.0712 33.1457 14.5128 31.8107 14.0544 32.1907C13.1328 32.9607 9.29399 36.3687 6.74399 40.0547C-5.89681 58.3277 2.36879 81.7407 24.4848 91.9877C46.5948 102.25 74.5152 95.6297 86.826 77.1987C101.069 55.9267 87.8436 13.5617 79.494 9.67673V9.67573Z" fill="#1A1111" fill-opacity="0.62"/>
<path d="M158.636 19.974C132.421 19.974 113.391 36.216 113.391 58.594C113.391 81.154 132.371 96.912 159.551 96.912C173.279 96.912 184.147 93.335 192.791 85.971C195.373 83.648 195.65 81.409 195.65 80.553C195.65 76.905 192.395 74.255 187.91 74.255C185.648 74.255 183.758 74.967 181.589 76.638C176.694 80.438 170.249 84.321 159.551 84.321C144.673 84.321 132.575 75.013 131.813 63.061H191.023C197.461 63.061 200.589 60.551 200.589 55.394C200.589 53.874 200.589 52.779 200.222 50.617C197.033 31.431 181.489 19.977 158.639 19.977L158.636 19.974ZM158.636 31.954C172.853 31.954 181.974 39.504 182.537 51.689H131.831C133.163 40.412 144.603 31.954 158.636 31.954ZM257.129 19.974C245.22 19.974 233.429 25.681 228.821 33.607V28.708C228.821 21.121 221.765 20.736 220.351 20.736C216.17 20.736 211.7 22.83 211.7 28.708V87.868C211.7 95.748 219.212 96.146 220.717 96.146C222.223 96.146 229.737 95.748 229.737 87.868V56.154C229.737 42.356 239.121 32.718 252.555 32.718C265.567 32.718 271.895 39.834 271.895 54.475V87.868C271.895 95.748 279.409 96.146 280.915 96.146C282.42 96.146 289.932 95.748 289.932 87.868V49.755C289.932 35.359 281.313 19.979 257.129 19.979V19.974ZM371.543 20.737C367.375 20.737 364.352 22.763 362.552 26.749L337.875 78.461L313.386 26.749C311.468 22.704 308.468 20.737 304.212 20.737C299.239 20.737 295.191 23.971 295.191 27.947C295.191 28.93 295.326 30.207 296.324 32.199L324.684 88.001C328.063 94.733 333.621 96.146 337.692 96.146C341.759 96.146 347.321 94.733 350.707 88.005L379.25 31.892C380.226 29.924 380.377 28.479 380.377 27.795C380.377 23.773 376.575 20.738 371.543 20.738V20.737ZM423.972 19.974C412.436 19.974 401.691 22.652 393.722 27.508C391.019 29.062 389.705 31 389.705 33.438C389.705 36.794 392.779 39.425 396.713 39.425C398.413 39.425 400.317 38.861 402.065 37.841C408.917 34.035 415.355 32.26 422.323 32.26C435.659 32.26 443.315 37.912 443.315 47.768V49.4C413.378 49.427 382.931 52.44 382.931 74.143C382.931 89.763 398.948 96.756 414.822 96.756C427.465 96.756 437.562 92.581 444.039 84.677V88.478C444.039 94.138 448.599 96.145 452.514 96.145C453.337 96.145 460.614 95.93 460.614 88.478V48.68C460.614 30.702 446.912 19.97 423.971 19.97L423.972 19.974ZM439.52 60.467H443.315V63.93C443.315 76.594 433.638 84.776 418.667 84.776C414.602 84.776 401.339 83.988 401.339 73.838C401.339 61.853 423.128 60.468 439.52 60.468V60.467ZM507.594 34.395C515.485 34.395 515.885 29.277 515.885 28.252C515.885 25.209 513.705 21.956 507.593 21.956H491.366V8.278C491.366 2.168 486.609 0 482.532 0C481.027 0 473.515 0.398 473.515 8.278V73.232C473.515 88.222 482.388 96.145 499.179 96.145C503.523 96.145 507.757 95.505 510.524 94.43C513.699 93.11 515.517 90.94 515.517 88.478C515.517 85.005 512.495 82.486 508.327 82.486C507.522 82.486 506.377 82.652 505.113 82.955C503.569 83.277 502.523 83.402 501.378 83.402C494.546 83.402 491.366 79.686 491.366 71.706V34.388H507.594V34.395ZM567.23 19.974C539.949 19.974 520.158 36.088 520.158 58.286C520.158 69.094 524.954 78.945 533.658 86.022C542.294 93.043 554.216 96.909 567.231 96.909C594.171 96.909 614.487 80.305 614.487 58.287C614.487 36.088 594.608 19.975 567.231 19.975H567.23V19.974ZM567.23 84.164C548.522 84.164 538.74 71.146 538.74 58.284C538.74 40.612 553.508 32.564 567.23 32.564C580.952 32.564 595.721 40.612 595.721 58.284C595.721 76.067 580.952 84.164 567.23 84.164Z" fill="#1A1111" fill-opacity="0.62"/>
<path d="M163.976 131.24C163.528 131.24 163.2 131.168 162.992 131.024C162.784 130.896 162.656 130.72 162.608 130.496C162.56 130.272 162.536 130.024 162.536 129.752V115.904C162.536 115.36 162.64 114.984 162.848 114.776C163.072 114.568 163.472 114.464 164.048 114.464H173.408C173.68 114.464 173.92 114.496 174.128 114.56C174.352 114.608 174.528 114.736 174.656 114.944C174.784 115.136 174.848 115.464 174.848 115.928C174.848 116.376 174.776 116.704 174.632 116.912C174.504 117.12 174.328 117.248 174.104 117.296C173.896 117.344 173.656 117.368 173.384 117.368H165.44V121.4H170.912C171.184 121.4 171.416 121.432 171.608 121.496C171.8 121.544 171.952 121.656 172.064 121.832C172.176 122.008 172.232 122.304 172.232 122.72C172.232 123.12 172.176 123.416 172.064 123.608C171.952 123.784 171.792 123.896 171.584 123.944C171.376 123.976 171.136 123.992 170.864 123.992H165.44V128.312H173.408C173.68 128.312 173.92 128.344 174.128 128.408C174.352 128.456 174.528 128.584 174.656 128.792C174.784 129 174.848 129.328 174.848 129.776C174.848 130.224 174.776 130.552 174.632 130.76C174.504 130.968 174.328 131.096 174.104 131.144C173.896 131.208 173.656 131.24 173.384 131.24H163.976ZM178.501 131.216C178.069 131.216 177.749 131.144 177.541 131C177.349 130.872 177.221 130.696 177.157 130.472C177.109 130.248 177.085 130.008 177.085 129.752V115.832C177.085 115.592 177.117 115.368 177.181 115.16C177.245 114.952 177.381 114.784 177.589 114.656C177.813 114.528 178.141 114.464 178.573 114.464C179.053 114.464 179.381 114.52 179.557 114.632C179.749 114.728 179.925 114.872 180.085 115.064L188.101 126.272V115.832C188.101 115.592 188.133 115.368 188.197 115.16C188.261 114.952 188.397 114.784 188.605 114.656C188.813 114.528 189.133 114.464 189.565 114.464C190.013 114.464 190.333 114.536 190.525 114.68C190.733 114.808 190.861 114.984 190.909 115.208C190.973 115.432 191.005 115.68 191.005 115.952V129.776C191.005 130.032 190.965 130.272 190.885 130.496C190.821 130.704 190.677 130.872 190.453 131C190.245 131.144 189.917 131.216 189.469 131.216C189.117 131.216 188.837 131.184 188.629 131.12C188.437 131.056 188.261 130.92 188.101 130.712L179.965 119.528V129.776C179.965 130.032 179.933 130.272 179.869 130.496C179.821 130.704 179.693 130.872 179.485 131C179.277 131.144 178.949 131.216 178.501 131.216ZM201.236 131.216C200.868 131.216 200.556 131.152 200.3 131.024C200.06 130.912 199.876 130.712 199.748 130.424L193.796 116.384C193.588 115.888 193.548 115.52 193.676 115.28C193.804 115.04 194.1 114.8 194.564 114.56C194.884 114.384 195.164 114.296 195.404 114.296C195.644 114.28 195.844 114.352 196.004 114.512C196.18 114.656 196.332 114.896 196.46 115.232L201.212 127.136L205.916 115.352C206.06 115.032 206.212 114.784 206.372 114.608C206.532 114.416 206.74 114.32 206.996 114.32C207.252 114.304 207.556 114.392 207.908 114.584C208.468 114.856 208.772 115.136 208.82 115.424C208.868 115.712 208.788 116.08 208.58 116.528L202.676 130.424C202.564 130.664 202.38 130.856 202.124 131C201.868 131.144 201.572 131.216 201.236 131.216ZM222.417 129.2C222.577 129.504 222.657 129.776 222.657 130.016C222.673 130.24 222.609 130.44 222.465 130.616C222.321 130.776 222.081 130.944 221.745 131.12C221.233 131.36 220.833 131.424 220.545 131.312C220.273 131.2 220.017 130.888 219.777 130.376L214.425 119.072L209.097 130.376C208.857 130.872 208.593 131.168 208.305 131.264C208.017 131.376 207.617 131.32 207.105 131.096C206.785 130.936 206.545 130.768 206.385 130.592C206.241 130.416 206.177 130.208 206.193 129.968C206.225 129.712 206.329 129.408 206.505 129.056L213.105 115.304C213.233 115.048 213.417 114.848 213.657 114.704C213.913 114.544 214.177 114.464 214.449 114.464C214.641 114.464 214.817 114.496 214.977 114.56C215.137 114.624 215.281 114.72 215.409 114.848C215.553 114.976 215.673 115.136 215.769 115.328L222.417 129.2ZM210.153 126.872L211.305 124.4H217.569L218.721 126.872H210.153ZM232.198 114.44C232.438 114.44 232.646 114.464 232.822 114.512C233.014 114.56 233.166 114.68 233.278 114.872C233.39 115.048 233.446 115.336 233.446 115.736C233.446 116.136 233.39 116.432 233.278 116.624C233.166 116.8 233.014 116.912 232.822 116.96C232.63 116.992 232.414 117.008 232.174 117.008H227.758V129.8C227.758 130.072 227.726 130.32 227.662 130.544C227.614 130.752 227.486 130.92 227.278 131.048C227.086 131.176 226.758 131.24 226.294 131.24C225.862 131.24 225.542 131.168 225.334 131.024C225.126 130.896 224.998 130.728 224.95 130.52C224.902 130.296 224.878 130.048 224.878 129.776V117.008H220.414C220.19 117.008 219.982 116.984 219.79 116.936C219.598 116.888 219.438 116.776 219.31 116.6C219.198 116.424 219.142 116.136 219.142 115.736C219.142 115.336 219.198 115.048 219.31 114.872C219.422 114.68 219.574 114.56 219.766 114.512C219.974 114.464 220.19 114.44 220.414 114.44H232.198ZM241.598 131.432C240.446 131.432 239.366 131.216 238.358 130.784C237.366 130.336 236.486 129.728 235.718 128.96C234.95 128.176 234.35 127.28 233.918 126.272C233.486 125.248 233.27 124.152 233.27 122.984C233.27 121.784 233.478 120.664 233.894 119.624C234.326 118.568 234.91 117.648 235.646 116.864C236.398 116.064 237.262 115.44 238.238 114.992C239.214 114.544 240.262 114.32 241.382 114.32C242.55 114.32 243.63 114.544 244.622 114.992C245.63 115.424 246.51 116.032 247.262 116.816C248.014 117.6 248.606 118.512 249.038 119.552C249.47 120.576 249.686 121.688 249.686 122.888C249.686 124.056 249.478 125.16 249.062 126.2C248.646 127.224 248.062 128.136 247.31 128.936C246.558 129.72 245.694 130.336 244.718 130.784C243.758 131.216 242.718 131.432 241.598 131.432ZM241.478 128.504C242.214 128.504 242.902 128.36 243.542 128.072C244.182 127.784 244.742 127.384 245.222 126.872C245.718 126.36 246.102 125.768 246.374 125.096C246.646 124.408 246.782 123.672 246.782 122.888C246.782 122.104 246.638 121.376 246.35 120.704C246.078 120.016 245.694 119.416 245.198 118.904C244.718 118.376 244.158 117.968 243.518 117.68C242.894 117.392 242.214 117.248 241.478 117.248C240.758 117.248 240.078 117.392 239.438 117.68C238.798 117.968 238.23 118.376 237.734 118.904C237.254 119.416 236.878 120.016 236.606 120.704C236.334 121.392 236.198 122.12 236.198 122.888C236.198 123.656 236.334 124.384 236.606 125.072C236.894 125.76 237.278 126.36 237.758 126.872C238.238 127.384 238.79 127.784 239.414 128.072C240.054 128.36 240.742 128.504 241.478 128.504ZM259.132 131.24C258.684 131.24 258.356 131.168 258.148 131.024C257.94 130.896 257.812 130.72 257.764 130.496C257.716 130.272 257.692 130.024 257.692 129.752V115.904C257.692 115.36 257.796 114.984 258.004 114.776C258.228 114.568 258.628 114.464 259.204 114.464H268.564C268.836 114.464 269.076 114.496 269.284 114.56C269.508 114.608 269.684 114.736 269.812 114.944C269.94 115.136 270.004 115.464 270.004 115.928C270.004 116.376 269.932 116.704 269.788 116.912C269.66 117.12 269.484 117.248 269.26 117.296C269.052 117.344 268.812 117.368 268.54 117.368H260.596V121.4H266.068C266.34 121.4 266.572 121.432 266.764 121.496C266.956 121.544 267.108 121.656 267.22 121.832C267.332 122.008 267.388 122.304 267.388 122.72C267.388 123.12 267.332 123.416 267.22 123.608C267.108 123.784 266.948 123.896 266.74 123.944C266.532 123.976 266.292 123.992 266.02 123.992H260.596V128.312H268.564C268.836 128.312 269.076 128.344 269.284 128.408C269.508 128.456 269.684 128.584 269.812 128.792C269.94 129 270.004 129.328 270.004 129.776C270.004 130.224 269.932 130.552 269.788 130.76C269.66 130.968 269.484 131.096 269.26 131.144C269.052 131.208 268.812 131.24 268.54 131.24H259.132ZM273.897 131.24C273.433 131.24 273.097 131.168 272.889 131.024C272.681 130.896 272.545 130.72 272.481 130.496C272.433 130.272 272.409 130.032 272.409 129.776V115.928C272.409 115.656 272.433 115.408 272.481 115.184C272.545 114.96 272.673 114.784 272.865 114.656C273.073 114.528 273.409 114.464 273.873 114.464C274.321 114.464 274.641 114.528 274.833 114.656C275.041 114.784 275.169 114.96 275.217 115.184C275.281 115.408 275.313 115.656 275.313 115.928V128.648H282.633C282.873 128.648 283.089 128.672 283.281 128.72C283.473 128.752 283.625 128.864 283.737 129.056C283.849 129.232 283.905 129.52 283.905 129.92C283.905 130.32 283.849 130.616 283.737 130.808C283.625 130.984 283.473 131.096 283.281 131.144C283.089 131.208 282.873 131.24 282.633 131.24H273.897ZM287.421 131.24C286.973 131.24 286.645 131.168 286.437 131.024C286.229 130.896 286.101 130.72 286.053 130.496C286.005 130.272 285.981 130.024 285.981 129.752V115.904C285.981 115.36 286.085 114.984 286.293 114.776C286.517 114.568 286.917 114.464 287.493 114.464H296.853C297.125 114.464 297.365 114.496 297.573 114.56C297.797 114.608 297.973 114.736 298.101 114.944C298.229 115.136 298.293 115.464 298.293 115.928C298.293 116.376 298.221 116.704 298.077 116.912C297.949 117.12 297.773 117.248 297.549 117.296C297.341 117.344 297.101 117.368 296.829 117.368H288.885V121.4H294.357C294.629 121.4 294.861 121.432 295.053 121.496C295.245 121.544 295.397 121.656 295.509 121.832C295.621 122.008 295.677 122.304 295.677 122.72C295.677 123.12 295.621 123.416 295.509 123.608C295.397 123.784 295.237 123.896 295.029 123.944C294.821 123.976 294.581 123.992 294.309 123.992H288.885V128.312H296.853C297.125 128.312 297.365 128.344 297.573 128.408C297.797 128.456 297.973 128.584 298.101 128.792C298.229 129 298.293 129.328 298.293 129.776C298.293 130.224 298.221 130.552 298.077 130.76C297.949 130.968 297.773 131.096 297.549 131.144C297.341 131.208 297.101 131.24 296.829 131.24H287.421ZM302.018 131.216C301.602 131.216 301.29 131.152 301.082 131.024C300.874 130.896 300.738 130.72 300.674 130.496C300.626 130.272 300.602 130.024 300.602 129.752V115.904C300.602 115.648 300.626 115.416 300.674 115.208C300.738 114.984 300.874 114.808 301.082 114.68C301.29 114.536 301.618 114.464 302.066 114.464C302.402 114.464 302.65 114.488 302.81 114.536C302.986 114.568 303.122 114.624 303.218 114.704C303.314 114.768 303.41 114.856 303.506 114.968L309.362 123.152H308.81L314.69 114.944C314.802 114.816 314.914 114.72 315.026 114.656C315.138 114.592 315.282 114.544 315.458 114.512C315.634 114.48 315.866 114.464 316.154 114.464C316.586 114.464 316.906 114.536 317.114 114.68C317.322 114.808 317.45 114.984 317.498 115.208C317.562 115.432 317.594 115.68 317.594 115.952V129.8C317.594 130.04 317.562 130.272 317.498 130.496C317.45 130.72 317.322 130.896 317.114 131.024C316.906 131.152 316.578 131.216 316.13 131.216C315.698 131.216 315.378 131.144 315.17 131C314.962 130.872 314.826 130.696 314.762 130.472C314.714 130.248 314.69 130.008 314.69 129.752V119.456L310.322 125.768C310.274 125.832 310.202 125.92 310.106 126.032C310.01 126.128 309.882 126.216 309.722 126.296C309.562 126.376 309.346 126.416 309.074 126.416C308.818 126.416 308.61 126.376 308.45 126.296C308.29 126.216 308.162 126.128 308.066 126.032C307.986 125.936 307.906 125.84 307.826 125.744L303.482 119.456V129.8C303.482 130.04 303.45 130.272 303.386 130.496C303.338 130.72 303.21 130.896 303.002 131.024C302.794 131.152 302.466 131.216 302.018 131.216ZM321.921 131.24C321.473 131.24 321.145 131.168 320.937 131.024C320.729 130.896 320.601 130.72 320.553 130.496C320.505 130.272 320.481 130.024 320.481 129.752V115.904C320.481 115.36 320.585 114.984 320.793 114.776C321.017 114.568 321.417 114.464 321.993 114.464H331.353C331.625 114.464 331.865 114.496 332.073 114.56C332.297 114.608 332.473 114.736 332.601 114.944C332.729 115.136 332.793 115.464 332.793 115.928C332.793 116.376 332.721 116.704 332.577 116.912C332.449 117.12 332.273 117.248 332.049 117.296C331.841 117.344 331.601 117.368 331.329 117.368H323.385V121.4H328.857C329.129 121.4 329.361 121.432 329.553 121.496C329.745 121.544 329.897 121.656 330.009 121.832C330.121 122.008 330.177 122.304 330.177 122.72C330.177 123.12 330.121 123.416 330.009 123.608C329.897 123.784 329.737 123.896 329.529 123.944C329.321 123.976 329.081 123.992 328.809 123.992H323.385V128.312H331.353C331.625 128.312 331.865 128.344 332.073 128.408C332.297 128.456 332.473 128.584 332.601 128.792C332.729 129 332.793 129.328 332.793 129.776C332.793 130.224 332.721 130.552 332.577 130.76C332.449 130.968 332.273 131.096 332.049 131.144C331.841 131.208 331.601 131.24 331.329 131.24H321.921ZM336.446 131.216C336.014 131.216 335.694 131.144 335.486 131C335.294 130.872 335.166 130.696 335.102 130.472C335.054 130.248 335.03 130.008 335.03 129.752V115.832C335.03 115.592 335.062 115.368 335.126 115.16C335.19 114.952 335.326 114.784 335.534 114.656C335.758 114.528 336.086 114.464 336.518 114.464C336.998 114.464 337.326 114.52 337.502 114.632C337.694 114.728 337.87 114.872 338.03 115.064L346.046 126.272V115.832C346.046 115.592 346.078 115.368 346.142 115.16C346.206 114.952 346.342 114.784 346.55 114.656C346.758 114.528 347.078 114.464 347.51 114.464C347.958 114.464 348.278 114.536 348.47 114.68C348.678 114.808 348.806 114.984 348.854 115.208C348.918 115.432 348.95 115.68 348.95 115.952V129.776C348.95 130.032 348.91 130.272 348.83 130.496C348.766 130.704 348.622 130.872 348.398 131C348.19 131.144 347.862 131.216 347.414 131.216C347.062 131.216 346.782 131.184 346.574 131.12C346.382 131.056 346.206 130.92 346.046 130.712L337.91 119.528V129.776C337.91 130.032 337.878 130.272 337.814 130.496C337.766 130.704 337.638 130.872 337.43 131C337.222 131.144 336.894 131.216 336.446 131.216ZM364.221 114.44C364.461 114.44 364.669 114.464 364.845 114.512C365.037 114.56 365.189 114.68 365.301 114.872C365.413 115.048 365.469 115.336 365.469 115.736C365.469 116.136 365.413 116.432 365.301 116.624C365.189 116.8 365.037 116.912 364.845 116.96C364.653 116.992 364.437 117.008 364.197 117.008H359.781V129.8C359.781 130.072 359.749 130.32 359.685 130.544C359.637 130.752 359.509 130.92 359.301 131.048C359.109 131.176 358.781 131.24 358.317 131.24C357.885 131.24 357.565 131.168 357.357 131.024C357.149 130.896 357.021 130.728 356.973 130.52C356.925 130.296 356.901 130.048 356.901 129.776V117.008H352.437C352.213 117.008 352.005 116.984 351.813 116.936C351.621 116.888 351.461 116.776 351.333 116.6C351.221 116.424 351.165 116.136 351.165 115.736C351.165 115.336 351.221 115.048 351.333 114.872C351.445 114.68 351.597 114.56 351.789 114.512C351.997 114.464 352.213 114.44 352.437 114.44H364.221ZM372.231 131.456C371.511 131.456 370.855 131.368 370.263 131.192C369.687 131.016 369.175 130.792 368.727 130.52C368.295 130.248 367.927 129.968 367.623 129.68C367.319 129.392 367.095 129.128 366.951 128.888C366.743 128.6 366.607 128.344 366.543 128.12C366.479 127.896 366.495 127.68 366.591 127.472C366.703 127.248 366.903 127.016 367.191 126.776C367.479 126.52 367.743 126.392 367.983 126.392C368.239 126.376 368.479 126.448 368.703 126.608C368.943 126.768 369.175 126.992 369.399 127.28C369.783 127.792 370.215 128.16 370.695 128.384C371.175 128.592 371.655 128.696 372.135 128.696C372.759 128.696 373.303 128.616 373.767 128.456C374.231 128.28 374.591 128.024 374.847 127.688C375.119 127.352 375.255 126.92 375.255 126.392C375.255 125.96 375.119 125.608 374.847 125.336C374.591 125.048 374.247 124.808 373.815 124.616C373.383 124.408 372.895 124.224 372.351 124.064C371.823 123.888 371.287 123.696 370.743 123.488C370.359 123.36 369.975 123.208 369.591 123.032C369.207 122.84 368.847 122.624 368.511 122.384C368.191 122.144 367.903 121.864 367.647 121.544C367.407 121.208 367.215 120.824 367.071 120.392C366.927 119.96 366.855 119.456 366.855 118.88C366.855 117.968 367.079 117.168 367.527 116.48C367.975 115.776 368.599 115.224 369.399 114.824C370.199 114.408 371.111 114.2 372.135 114.2C372.791 114.2 373.375 114.264 373.887 114.392C374.415 114.504 374.863 114.656 375.231 114.848C375.615 115.024 375.927 115.208 376.167 115.4C376.423 115.576 376.607 115.728 376.719 115.856C377.087 116.224 377.287 116.536 377.319 116.792C377.367 117.032 377.223 117.36 376.887 117.776C376.551 118.208 376.223 118.448 375.903 118.496C375.599 118.528 375.255 118.4 374.871 118.112C374.615 117.84 374.359 117.624 374.103 117.464C373.847 117.288 373.559 117.16 373.239 117.08C372.935 117 372.559 116.96 372.111 116.96C371.791 116.96 371.479 117.008 371.175 117.104C370.887 117.184 370.639 117.312 370.431 117.488C370.223 117.648 370.055 117.848 369.927 118.088C369.815 118.328 369.759 118.6 369.759 118.904C369.759 119.32 369.871 119.664 370.095 119.936C370.335 120.192 370.655 120.408 371.055 120.584C371.455 120.744 371.903 120.896 372.399 121.04C372.895 121.184 373.399 121.336 373.911 121.496C374.439 121.672 374.959 121.88 375.471 122.12C375.983 122.36 376.439 122.664 376.839 123.032C377.239 123.384 377.559 123.832 377.799 124.376C378.039 124.904 378.159 125.552 378.159 126.32C378.159 127.2 377.991 127.968 377.655 128.624C377.319 129.28 376.863 129.816 376.287 130.232C375.711 130.648 375.071 130.952 374.367 131.144C373.663 131.352 372.951 131.456 372.231 131.456Z" fill="#1A1111" fill-opacity="0.62"/>
</svg>
