<svg width="151" height="178" viewBox="0 0 151 178" fill="none" xmlns="http://www.w3.org/2000/svg">
<path d="M9.408 172.336C8.624 172.336 7.832 172.224 7.032 172C6.232 171.76 5.464 171.408 4.728 170.944C3.992 170.464 3.336 169.88 2.76 169.192C2.2 168.488 1.752 167.68 1.416 166.768C1.08 165.84 0.912 164.816 0.912 163.696C0.912 162.592 1.08 161.6 1.416 160.72C1.752 159.824 2.2 159.04 2.76 158.368C3.336 157.696 3.984 157.136 4.704 156.688C5.44 156.24 6.208 155.904 7.008 155.68C7.824 155.44 8.632 155.312 9.432 155.296C10.248 155.296 10.952 155.384 11.544 155.56C12.136 155.736 12.616 155.928 12.984 156.136C13.352 156.328 13.6 156.464 13.728 156.544C13.984 156.704 14.224 156.888 14.448 157.096C14.688 157.288 14.816 157.528 14.832 157.816C14.848 158.008 14.824 158.184 14.76 158.344C14.696 158.488 14.608 158.64 14.496 158.8C14.304 159.072 14.112 159.272 13.92 159.4C13.728 159.528 13.536 159.592 13.344 159.592C13.168 159.592 13 159.544 12.84 159.448C12.696 159.352 12.512 159.232 12.288 159.088C12.192 159.024 12.016 158.928 11.76 158.8C11.52 158.656 11.192 158.528 10.776 158.416C10.376 158.304 9.888 158.248 9.312 158.248C8.624 158.248 7.952 158.368 7.296 158.608C6.64 158.848 6.048 159.208 5.52 159.688C5.008 160.152 4.6 160.736 4.296 161.44C3.992 162.128 3.84 162.92 3.84 163.816C3.84 164.712 3.992 165.512 4.296 166.216C4.6 166.904 5.008 167.488 5.52 167.968C6.048 168.432 6.64 168.784 7.296 169.024C7.952 169.264 8.624 169.384 9.312 169.384C9.856 169.384 10.32 169.336 10.704 169.24C11.104 169.128 11.44 169 11.712 168.856C12 168.696 12.216 168.576 12.36 168.496C12.536 168.384 12.704 168.28 12.864 168.184C13.024 168.088 13.192 168.04 13.368 168.04C13.56 168.04 13.744 168.104 13.92 168.232C14.112 168.36 14.296 168.568 14.472 168.856C14.584 169.032 14.672 169.2 14.736 169.36C14.8 169.52 14.824 169.688 14.808 169.864C14.792 170.152 14.664 170.4 14.424 170.608C14.2 170.8 13.96 170.968 13.704 171.112C13.576 171.192 13.328 171.336 12.96 171.544C12.608 171.736 12.136 171.912 11.544 172.072C10.952 172.248 10.24 172.336 9.408 172.336ZM24.5826 172.432C23.4306 172.432 22.3506 172.216 21.3426 171.784C20.3506 171.336 19.4706 170.728 18.7026 169.96C17.9346 169.176 17.3346 168.28 16.9026 167.272C16.4706 166.248 16.2546 165.152 16.2546 163.984C16.2546 162.784 16.4626 161.664 16.8786 160.624C17.3106 159.568 17.8946 158.648 18.6306 157.864C19.3826 157.064 20.2466 156.44 21.2226 155.992C22.1986 155.544 23.2466 155.32 24.3666 155.32C25.5346 155.32 26.6146 155.544 27.6066 155.992C28.6146 156.424 29.4946 157.032 30.2466 157.816C30.9986 158.6 31.5906 159.512 32.0226 160.552C32.4546 161.576 32.6706 162.688 32.6706 163.888C32.6706 165.056 32.4626 166.16 32.0466 167.2C31.6306 168.224 31.0466 169.136 30.2946 169.936C29.5426 170.72 28.6786 171.336 27.7026 171.784C26.7426 172.216 25.7026 172.432 24.5826 172.432ZM24.4626 169.504C25.1986 169.504 25.8866 169.36 26.5266 169.072C27.1666 168.784 27.7266 168.384 28.2066 167.872C28.7026 167.36 29.0866 166.768 29.3586 166.096C29.6306 165.408 29.7666 164.672 29.7666 163.888C29.7666 163.104 29.6226 162.376 29.3346 161.704C29.0626 161.016 28.6786 160.416 28.1826 159.904C27.7026 159.376 27.1426 158.968 26.5026 158.68C25.8786 158.392 25.1986 158.248 24.4626 158.248C23.7426 158.248 23.0626 158.392 22.4226 158.68C21.7826 158.968 21.2146 159.376 20.7186 159.904C20.2386 160.416 19.8626 161.016 19.5906 161.704C19.3186 162.392 19.1826 163.12 19.1826 163.888C19.1826 164.656 19.3186 165.384 19.5906 166.072C19.8786 166.76 20.2626 167.36 20.7426 167.872C21.2226 168.384 21.7746 168.784 22.3986 169.072C23.0386 169.36 23.7266 169.504 24.4626 169.504ZM36.1155 172.216C35.6675 172.216 35.3395 172.152 35.1315 172.024C34.9395 171.896 34.8115 171.72 34.7475 171.496C34.6995 171.256 34.6755 171.008 34.6755 170.752V156.904C34.6755 156.648 34.7075 156.416 34.7715 156.208C34.8355 155.984 34.9635 155.808 35.1555 155.68C35.3635 155.536 35.6915 155.464 36.1395 155.464H41.2755C42.0115 155.464 42.7075 155.584 43.3635 155.824C44.0355 156.048 44.6355 156.4 45.1635 156.88C45.6915 157.344 46.1075 157.936 46.4115 158.656C46.7315 159.36 46.8915 160.184 46.8915 161.128C46.8915 161.752 46.7955 162.376 46.6035 163C46.4115 163.608 46.1235 164.176 45.7395 164.704C45.3715 165.216 44.8995 165.656 44.3235 166.024C43.7475 166.392 43.0675 166.632 42.2835 166.744H37.5795V170.776C37.5795 171.032 37.5475 171.272 37.4835 171.496C37.4355 171.72 37.3075 171.896 37.0995 172.024C36.9075 172.152 36.5795 172.216 36.1155 172.216ZM46.3395 171.856C45.8755 172.176 45.4915 172.296 45.1875 172.216C44.8995 172.136 44.6115 171.88 44.3235 171.448L40.2915 165.352L43.5315 164.92L46.7235 169.768C46.9475 170.088 47.0835 170.36 47.1315 170.584C47.1795 170.808 47.1395 171.016 47.0115 171.208C46.8835 171.4 46.6595 171.616 46.3395 171.856ZM37.5795 163.864H41.6355C41.9235 163.864 42.2035 163.816 42.4755 163.72C42.7635 163.608 43.0195 163.44 43.2435 163.216C43.4675 162.976 43.6435 162.688 43.7715 162.352C43.9155 162 43.9875 161.584 43.9875 161.104C43.9875 160.528 43.8755 160.04 43.6515 159.64C43.4275 159.224 43.1075 158.912 42.6915 158.704C42.2915 158.48 41.8035 158.368 41.2275 158.368H37.5795V163.864ZM50.9994 172.24C50.5514 172.24 50.2234 172.168 50.0154 172.024C49.8074 171.896 49.6794 171.72 49.6314 171.496C49.5834 171.272 49.5594 171.024 49.5594 170.752V156.904C49.5594 156.36 49.6634 155.984 49.8714 155.776C50.0954 155.568 50.4954 155.464 51.0714 155.464H60.4314C60.7034 155.464 60.9434 155.496 61.1514 155.56C61.3754 155.608 61.5514 155.736 61.6794 155.944C61.8074 156.136 61.8714 156.464 61.8714 156.928C61.8714 157.376 61.7994 157.704 61.6554 157.912C61.5274 158.12 61.3514 158.248 61.1274 158.296C60.9194 158.344 60.6794 158.368 60.4074 158.368H52.4634V162.4H57.9354C58.2074 162.4 58.4394 162.432 58.6314 162.496C58.8234 162.544 58.9754 162.656 59.0874 162.832C59.1994 163.008 59.2554 163.304 59.2554 163.72C59.2554 164.12 59.1994 164.416 59.0874 164.608C58.9754 164.784 58.8154 164.896 58.6074 164.944C58.3994 164.976 58.1594 164.992 57.8874 164.992H52.4634V169.312H60.4314C60.7034 169.312 60.9434 169.344 61.1514 169.408C61.3754 169.456 61.5514 169.584 61.6794 169.792C61.8074 170 61.8714 170.328 61.8714 170.776C61.8714 171.224 61.7994 171.552 61.6554 171.76C61.5274 171.968 61.3514 172.096 61.1274 172.144C60.9194 172.208 60.6794 172.24 60.4074 172.24H50.9994ZM65.7639 172.24C65.2999 172.24 64.9639 172.168 64.7559 172.024C64.5479 171.896 64.4119 171.72 64.3479 171.496C64.2999 171.272 64.2759 171.032 64.2759 170.776V156.928C64.2759 156.656 64.2999 156.408 64.3479 156.184C64.4119 155.96 64.5399 155.784 64.7319 155.656C64.9399 155.528 65.2759 155.464 65.7399 155.464C66.1879 155.464 66.5079 155.528 66.6999 155.656C66.9079 155.784 67.0359 155.96 67.0839 156.184C67.1479 156.408 67.1799 156.656 67.1799 156.928V169.648H74.4999C74.7399 169.648 74.9559 169.672 75.1479 169.72C75.3399 169.752 75.4919 169.864 75.6039 170.056C75.7159 170.232 75.7719 170.52 75.7719 170.92C75.7719 171.32 75.7159 171.616 75.6039 171.808C75.4919 171.984 75.3399 172.096 75.1479 172.144C74.9559 172.208 74.7399 172.24 74.4999 172.24H65.7639ZM84.9776 172.216C84.5616 172.216 84.2496 172.144 84.0416 172C83.8336 171.872 83.6976 171.696 83.6336 171.472C83.5696 171.248 83.5376 171.008 83.5376 170.752V156.88C83.5376 156.624 83.5616 156.392 83.6096 156.184C83.6736 155.96 83.8096 155.784 84.0176 155.656C84.2256 155.512 84.5536 155.44 85.0016 155.44L89.5136 155.464C90.6816 155.464 91.7536 155.664 92.7296 156.064C93.7216 156.464 94.5776 157.032 95.2976 157.768C96.0176 158.504 96.5696 159.384 96.9536 160.408C97.3536 161.416 97.5536 162.528 97.5536 163.744C97.5536 164.992 97.3536 166.136 96.9536 167.176C96.5536 168.216 95.9936 169.112 95.2736 169.864C94.5536 170.616 93.6976 171.2 92.7056 171.616C91.7296 172.016 90.6416 172.216 89.4416 172.216H84.9776ZM86.4416 169.312H89.5136C90.5376 169.312 91.4336 169.088 92.2016 168.64C92.9696 168.176 93.5616 167.536 93.9776 166.72C94.4096 165.904 94.6256 164.952 94.6256 163.864C94.6256 162.76 94.4096 161.8 93.9776 160.984C93.5616 160.152 92.9616 159.512 92.1776 159.064C91.4096 158.6 90.5136 158.368 89.4896 158.368H86.4416V169.312ZM101.506 172.216C101.058 172.216 100.73 172.152 100.522 172.024C100.33 171.896 100.202 171.72 100.138 171.496C100.09 171.256 100.066 171.008 100.066 170.752V156.904C100.066 156.648 100.098 156.416 100.162 156.208C100.226 155.984 100.354 155.808 100.546 155.68C100.754 155.536 101.082 155.464 101.53 155.464H106.666C107.402 155.464 108.098 155.584 108.754 155.824C109.426 156.048 110.026 156.4 110.554 156.88C111.082 157.344 111.498 157.936 111.802 158.656C112.122 159.36 112.282 160.184 112.282 161.128C112.282 161.752 112.186 162.376 111.994 163C111.802 163.608 111.514 164.176 111.13 164.704C110.762 165.216 110.29 165.656 109.714 166.024C109.138 166.392 108.458 166.632 107.674 166.744H102.97V170.776C102.97 171.032 102.938 171.272 102.874 171.496C102.826 171.72 102.698 171.896 102.49 172.024C102.298 172.152 101.97 172.216 101.506 172.216ZM111.73 171.856C111.266 172.176 110.882 172.296 110.578 172.216C110.29 172.136 110.002 171.88 109.714 171.448L105.682 165.352L108.922 164.92L112.114 169.768C112.338 170.088 112.474 170.36 112.522 170.584C112.57 170.808 112.53 171.016 112.402 171.208C112.274 171.4 112.05 171.616 111.73 171.856ZM102.97 163.864H107.026C107.314 163.864 107.594 163.816 107.866 163.72C108.154 163.608 108.41 163.44 108.634 163.216C108.858 162.976 109.034 162.688 109.162 162.352C109.306 162 109.378 161.584 109.378 161.104C109.378 160.528 109.266 160.04 109.042 159.64C108.818 159.224 108.498 158.912 108.082 158.704C107.682 158.48 107.194 158.368 106.618 158.368H102.97V163.864ZM129.527 170.2C129.687 170.504 129.767 170.776 129.767 171.016C129.783 171.24 129.719 171.44 129.575 171.616C129.431 171.776 129.191 171.944 128.855 172.12C128.343 172.36 127.943 172.424 127.655 172.312C127.383 172.2 127.127 171.888 126.887 171.376L121.535 160.072L116.207 171.376C115.967 171.872 115.703 172.168 115.415 172.264C115.127 172.376 114.727 172.32 114.215 172.096C113.895 171.936 113.655 171.768 113.495 171.592C113.351 171.416 113.287 171.208 113.303 170.968C113.335 170.712 113.439 170.408 113.615 170.056L120.215 156.304C120.343 156.048 120.527 155.848 120.767 155.704C121.023 155.544 121.287 155.464 121.559 155.464C121.751 155.464 121.927 155.496 122.087 155.56C122.247 155.624 122.391 155.72 122.519 155.848C122.663 155.976 122.783 156.136 122.879 156.328L129.527 170.2ZM117.263 167.872L118.415 165.4H124.679L125.831 167.872H117.263ZM133.824 172.168C133.504 172.168 133.248 172.112 133.056 172C132.864 171.872 132.72 171.728 132.624 171.568C132.544 171.408 132.488 171.272 132.456 171.16L127.752 157.384C127.592 156.872 127.568 156.488 127.68 156.232C127.792 155.96 128.12 155.736 128.664 155.56C129.032 155.432 129.328 155.376 129.552 155.392C129.776 155.408 129.96 155.504 130.104 155.68C130.264 155.84 130.4 156.096 130.512 156.448L133.968 166.912L137.064 156.544C137.112 156.384 137.176 156.224 137.256 156.064C137.352 155.888 137.496 155.744 137.688 155.632C137.88 155.52 138.144 155.464 138.48 155.464C138.864 155.464 139.152 155.528 139.344 155.656C139.536 155.784 139.672 155.928 139.752 156.088C139.848 156.232 139.912 156.368 139.944 156.496L143.04 166.984L146.52 156.472C146.632 156.104 146.76 155.832 146.904 155.656C147.064 155.48 147.264 155.384 147.504 155.368C147.744 155.336 148.04 155.384 148.392 155.512C148.76 155.64 149.024 155.784 149.184 155.944C149.344 156.088 149.424 156.28 149.424 156.52C149.424 156.744 149.368 157.032 149.256 157.384L144.576 171.184C144.544 171.28 144.48 171.408 144.384 171.568C144.304 171.728 144.168 171.872 143.976 172C143.784 172.112 143.52 172.168 143.184 172.168C142.848 172.168 142.584 172.096 142.392 171.952C142.2 171.808 142.056 171.648 141.96 171.472C141.864 171.296 141.8 171.168 141.768 171.088L138.504 160.528L135.24 171.064C135.208 171.176 135.144 171.32 135.048 171.496C134.968 171.672 134.832 171.832 134.64 171.976C134.448 172.104 134.176 172.168 133.824 172.168Z" fill="#1A1111" fill-opacity="0.62"/>
<path fill-rule="evenodd" clip-rule="evenodd" d="M61.8115 126.521H86.6905L83.3053 139H65.1522L61.8115 126.521ZM54.9002 50.1567C56.196 68.9245 61.9498 92.3772 71.816 119.598C73.5218 120.307 75.142 120.28 76.6857 119.598C86.5489 92.3864 92.3027 68.9394 93.6001 50.1747C97.8695 -17.375 50.7303 -15.4746 54.9002 50.1567ZM65.1964 0C65.1964 0 36.1543 9.12622 38.245 44.2278C40.3354 79.3291 69.2218 119.579 69.2218 119.579C51.4385 106.479 25.0989 65.6688 24.5914 41.6538C24.4087 20.3613 41.8689 2.5058 65.1964 0ZM19.0221 44.7352C23.2672 80.3773 67.0516 120.955 63.5562 118.293C53.8061 111.312 20.9767 78.4405 14.8077 47.6385C8.6386 16.8366 39.8344 6.16812 39.8344 6.16812C21.7265 16.3615 16.9899 31.2788 19.0224 44.7355L19.0221 44.7352ZM85.8714 117.903C88.2538 113.782 108.848 77.2935 110.817 44.2278C112.908 9.12622 83.8661 0 83.8661 0C86.5734 0.0955625 92.5996 1.55506 98.2883 3.80621C103.977 6.05709 124.079 16.3127 124.471 41.6538C124.137 57.4298 115.161 79.8979 103.999 97.1724C115.305 82.7767 127.991 63.1011 130.178 44.7352C132.21 31.2788 127.474 16.3615 109.366 6.16812C109.366 6.16812 140.561 16.8366 134.392 47.6385C128.223 78.4405 95.3344 111.344 85.585 118.326L85.8714 117.903V117.903Z" fill="#1A1111" fill-opacity="0.62"/>
</svg>
