<svg width="171" height="196" viewBox="0 0 171 196" fill="none" xmlns="http://www.w3.org/2000/svg">
<path d="M50.976 190.24C50.528 190.24 50.2 190.168 49.992 190.024C49.784 189.896 49.656 189.72 49.608 189.496C49.56 189.272 49.536 189.024 49.536 188.752V174.904C49.536 174.36 49.64 173.984 49.848 173.776C50.072 173.568 50.472 173.464 51.048 173.464H60.408C60.68 173.464 60.92 173.496 61.128 173.56C61.336 173.608 61.504 173.736 61.632 173.944C61.76 174.136 61.824 174.464 61.824 174.928C61.824 175.376 61.752 175.704 61.608 175.912C61.48 176.12 61.304 176.248 61.08 176.296C60.872 176.344 60.632 176.368 60.36 176.368H52.44V180.4H57.888C58.16 180.4 58.392 180.432 58.584 180.496C58.792 180.544 58.944 180.664 59.04 180.856C59.152 181.032 59.208 181.328 59.208 181.744C59.208 182.128 59.152 182.416 59.04 182.608C58.928 182.784 58.768 182.896 58.56 182.944C58.368 182.976 58.136 182.992 57.864 182.992H52.44V188.776C52.44 189.048 52.408 189.296 52.344 189.52C52.296 189.728 52.168 189.896 51.96 190.024C51.752 190.168 51.424 190.24 50.976 190.24ZM65.688 190.24C65.24 190.24 64.912 190.168 64.704 190.024C64.496 189.896 64.368 189.72 64.32 189.496C64.272 189.272 64.248 189.024 64.248 188.752V174.904C64.248 174.648 64.272 174.408 64.32 174.184C64.384 173.96 64.512 173.784 64.704 173.656C64.912 173.528 65.248 173.464 65.712 173.464C66.16 173.464 66.48 173.528 66.672 173.656C66.88 173.784 67.008 173.96 67.056 174.184C67.12 174.408 67.152 174.656 67.152 174.928V188.776C67.152 189.048 67.12 189.296 67.056 189.52C67.008 189.728 66.88 189.896 66.672 190.024C66.464 190.168 66.136 190.24 65.688 190.24ZM77.7752 190.336C76.5752 190.336 75.4712 190.128 74.4632 189.712C73.4552 189.28 72.5832 188.672 71.8472 187.888C71.1112 187.104 70.5432 186.184 70.1432 185.128C69.7432 184.056 69.5432 182.872 69.5432 181.576C69.5432 180.36 69.7512 179.248 70.1672 178.24C70.5832 177.232 71.1672 176.36 71.9192 175.624C72.6712 174.872 73.5592 174.288 74.5832 173.872C75.6232 173.456 76.7592 173.248 77.9912 173.248C78.5032 173.248 79.0312 173.296 79.5752 173.392C80.1192 173.472 80.6472 173.608 81.1592 173.8C81.6712 173.976 82.1192 174.2 82.5032 174.472C82.8072 174.664 83.0632 174.864 83.2712 175.072C83.4952 175.264 83.6152 175.488 83.6312 175.744C83.6472 175.888 83.6232 176.048 83.5592 176.224C83.4952 176.384 83.3992 176.552 83.2712 176.728C83.0952 177 82.9032 177.2 82.6952 177.328C82.5032 177.456 82.3112 177.52 82.1192 177.52C82.0072 177.52 81.8712 177.48 81.7112 177.4C81.5512 177.304 81.3352 177.176 81.0632 177.016C80.8552 176.872 80.5832 176.736 80.2472 176.608C79.9112 176.48 79.5432 176.376 79.1432 176.296C78.7432 176.216 78.3272 176.176 77.8952 176.176C76.8232 176.176 75.8792 176.4 75.0632 176.848C74.2472 177.296 73.6072 177.936 73.1432 178.768C72.6952 179.584 72.4712 180.544 72.4712 181.648C72.4712 182.784 72.7032 183.784 73.1672 184.648C73.6312 185.512 74.2632 186.192 75.0632 186.688C75.8792 187.168 76.8152 187.408 77.8712 187.408C78.2392 187.408 78.6072 187.384 78.9752 187.336C79.3592 187.288 79.7272 187.216 80.0792 187.12C80.4472 187.024 80.7832 186.904 81.0872 186.76V182.968H77.6792C77.4552 182.968 77.2472 182.944 77.0552 182.896C76.8792 182.848 76.7352 182.736 76.6232 182.56C76.5272 182.384 76.4792 182.096 76.4792 181.696C76.4792 181.28 76.5352 180.984 76.6472 180.808C76.7592 180.632 76.9032 180.52 77.0792 180.472C77.2712 180.424 77.4792 180.4 77.7032 180.4H82.5992C83.0152 180.4 83.3192 180.472 83.5112 180.616C83.7032 180.76 83.8312 180.944 83.8952 181.168C83.9592 181.376 83.9912 181.616 83.9912 181.888V187.48C83.9912 187.8 83.8312 188.128 83.5112 188.464C83.2072 188.8 82.7752 189.112 82.2152 189.4C81.8472 189.592 81.4232 189.76 80.9432 189.904C80.4792 190.032 79.9752 190.136 79.4312 190.216C78.9032 190.296 78.3512 190.336 77.7752 190.336ZM88.2131 190.216C87.7971 190.216 87.4851 190.152 87.2771 190.024C87.0691 189.896 86.9331 189.72 86.8691 189.496C86.8211 189.272 86.7971 189.024 86.7971 188.752V174.904C86.7971 174.648 86.8211 174.416 86.8691 174.208C86.9331 173.984 87.0691 173.808 87.2771 173.68C87.4851 173.536 87.8131 173.464 88.2611 173.464C88.5971 173.464 88.8451 173.488 89.0051 173.536C89.1811 173.568 89.3171 173.624 89.4131 173.704C89.5091 173.768 89.6051 173.856 89.7011 173.968L95.5571 182.152H95.0051L100.885 173.944C100.997 173.816 101.109 173.72 101.221 173.656C101.333 173.592 101.477 173.544 101.653 173.512C101.829 173.48 102.061 173.464 102.349 173.464C102.781 173.464 103.101 173.536 103.309 173.68C103.517 173.808 103.645 173.984 103.693 174.208C103.757 174.432 103.789 174.68 103.789 174.952V188.8C103.789 189.04 103.757 189.272 103.693 189.496C103.645 189.72 103.517 189.896 103.309 190.024C103.101 190.152 102.773 190.216 102.325 190.216C101.893 190.216 101.573 190.144 101.365 190C101.157 189.872 101.021 189.696 100.957 189.472C100.909 189.248 100.885 189.008 100.885 188.752V178.456L96.5171 184.768C96.4691 184.832 96.3971 184.92 96.3011 185.032C96.2051 185.128 96.0771 185.216 95.9171 185.296C95.7571 185.376 95.5411 185.416 95.2691 185.416C95.0131 185.416 94.8051 185.376 94.6451 185.296C94.4851 185.216 94.3571 185.128 94.2611 185.032C94.1811 184.936 94.1011 184.84 94.0211 184.744L89.6771 178.456V188.8C89.6771 189.04 89.6451 189.272 89.5811 189.496C89.5331 189.72 89.4051 189.896 89.1971 190.024C88.9891 190.152 88.6611 190.216 88.2131 190.216ZM121.253 188.2C121.413 188.504 121.493 188.776 121.493 189.016C121.509 189.24 121.445 189.44 121.301 189.616C121.157 189.776 120.917 189.944 120.581 190.12C120.069 190.36 119.669 190.424 119.381 190.312C119.109 190.2 118.853 189.888 118.613 189.376L113.261 178.072L107.933 189.376C107.693 189.872 107.429 190.168 107.141 190.264C106.853 190.376 106.453 190.32 105.941 190.096C105.621 189.936 105.381 189.768 105.221 189.592C105.077 189.416 105.013 189.208 105.029 188.968C105.061 188.712 105.165 188.408 105.341 188.056L111.941 174.304C112.069 174.048 112.253 173.848 112.493 173.704C112.749 173.544 113.013 173.464 113.285 173.464C113.477 173.464 113.653 173.496 113.813 173.56C113.973 173.624 114.117 173.72 114.245 173.848C114.389 173.976 114.509 174.136 114.605 174.328L121.253 188.2ZM108.989 185.872L110.141 183.4H116.405L117.557 185.872H108.989Z" fill="#1A1111" fill-opacity="0.62"/>
<path d="M60.5625 14.25C54.8935 14.25 49.4567 16.502 45.4481 20.5106C41.4395 24.5192 39.1875 29.956 39.1875 35.625C39.1875 41.294 41.4395 46.7308 45.4481 50.7394C49.4567 54.748 54.8935 57 60.5625 57H110.438C116.107 57 121.543 54.748 125.552 50.7394C129.561 46.7308 131.813 41.294 131.813 35.625C131.813 29.956 129.561 24.5192 125.552 20.5106C121.543 16.502 116.107 14.25 110.438 14.25H60.5625ZM110.438 64.125C104.769 64.125 99.3317 66.377 95.3231 70.3856C91.3145 74.3942 89.0625 79.831 89.0625 85.5C89.0625 91.169 91.3145 96.6058 95.3231 100.614C99.3317 104.623 104.769 106.875 110.438 106.875C116.107 106.875 121.543 104.623 125.552 100.614C129.561 96.6058 131.813 91.169 131.813 85.5C131.813 79.831 129.561 74.3942 125.552 70.3856C121.543 66.377 116.107 64.125 110.438 64.125ZM39.1875 85.5C39.1875 79.831 41.4395 74.3942 45.4481 70.3856C49.4567 66.377 54.8935 64.125 60.5625 64.125H81.9375V106.875H60.5625C54.8935 106.875 49.4567 104.623 45.4481 100.614C41.4395 96.6058 39.1875 91.169 39.1875 85.5ZM60.5625 114C56.3349 114 52.2023 115.254 48.6872 117.602C45.1721 119.951 42.4324 123.289 40.8146 127.195C39.1968 131.101 38.7735 135.399 39.5982 139.545C40.423 143.691 42.4588 147.5 45.4481 150.489C48.4374 153.479 52.2461 155.515 56.3925 156.339C60.5388 157.164 64.8366 156.741 68.7424 155.123C72.6481 153.505 75.9865 150.765 78.3352 147.25C80.6839 143.735 81.9375 139.603 81.9375 135.375V114H60.5625Z" fill="#1A1111" fill-opacity="0.62"/>
</svg>
