<svg width="674" height="33" viewBox="0 0 674 33" fill="none" xmlns="http://www.w3.org/2000/svg">
<path d="M53.6165 25.3765C55.3106 25.4347 56.993 25.1118 58.4958 24.4401C59.6836 23.8878 60.7089 23.1113 61.4939 22.1695C62.2216 21.2828 62.7315 20.2791 62.9929 19.2189C63.241 18.2495 63.3716 17.2608 63.3827 16.2684C63.3716 15.2782 63.241 14.2916 62.9929 13.3243C62.7315 12.2642 62.2216 11.2604 61.4939 10.3738C60.7074 9.43146 59.6826 8.65312 58.4958 8.09678C56.9898 7.43308 55.3093 7.11275 53.6165 7.16672H4.59081C4.03373 7.17957 3.47961 7.09327 2.96353 6.9133C2.44746 6.73333 1.98068 6.46361 1.59276 6.12122C1.20326 5.7891 0.896759 5.39267 0.691889 4.95601C0.487019 4.51936 0.388061 4.05161 0.401031 3.58121C0.392982 3.11004 0.497155 2.6424 0.707198 2.20681C0.917241 1.77122 1.22875 1.3768 1.62274 1.04761C2.0072 0.708428 2.46911 0.440573 2.97972 0.260708C3.49034 0.0808433 4.03874 -0.00718455 4.59081 0.00210043H55.4303C57.7946 -0.0322201 60.1257 0.482008 62.1759 1.49019C64.1376 2.48064 65.8558 3.78766 67.2352 5.33869C68.6316 6.91385 69.7085 8.67886 70.4206 10.5598C71.1284 12.4026 71.4951 14.3287 71.5074 16.2684C71.4949 18.1699 71.141 20.0585 70.4581 21.868C69.7883 23.7055 68.7759 25.4383 67.46 26.9993C66.1712 28.5252 64.5593 29.8306 62.7081 30.8478C60.7955 31.8802 58.5971 32.4601 56.3372 32.5283H4.62079C4.06371 32.5412 3.50959 32.4549 2.99352 32.2749C2.47744 32.0949 2.01066 31.8252 1.62274 31.4828C1.22483 31.1495 0.911095 30.7497 0.700953 30.3084C0.490812 29.8671 0.388732 29.3936 0.401031 28.9172V16.2684C0.392102 15.7972 0.495873 15.3293 0.705967 14.8936C0.916061 14.4579 1.22804 14.0636 1.62274 13.7348C2.01066 13.3924 2.47744 13.1227 2.99352 12.9427C3.50959 12.7628 4.06371 12.6765 4.62079 12.6893C5.17173 12.6802 5.71897 12.7683 6.22835 12.9481C6.73773 13.128 7.19832 13.3958 7.58137 13.7348C7.9775 14.0626 8.29044 14.4568 8.50064 14.8927C8.71083 15.3286 8.81379 15.7969 8.80308 16.2684V25.3765H53.6165Z" fill="url(#paint0_linear_270_122)"/>
<path d="M80.1871 3.58119C80.179 3.11002 80.2832 2.64238 80.4932 2.20679C80.7033 1.7712 81.0148 1.37679 81.4088 1.04759C81.7903 0.71219 82.2474 0.44658 82.7525 0.266863C83.2575 0.0871469 83.7999 -0.00293309 84.3469 0.00208368H146.174C146.731 -0.00998109 147.285 0.0766717 147.801 0.256596C148.317 0.436521 148.784 0.705828 149.172 1.04759C149.572 1.37957 149.888 1.77903 150.098 2.22067C150.308 2.66232 150.409 3.13653 150.394 3.61326C150.409 4.08999 150.308 4.5642 150.098 5.00585C149.888 5.44749 149.572 5.84695 149.172 6.17893C148.784 6.52069 148.317 6.79 147.801 6.96992C147.285 7.14985 146.731 7.2365 146.174 7.22444H84.3469C83.7899 7.2365 83.2361 7.14985 82.7201 6.96992C82.2042 6.79 81.7373 6.52069 81.3488 6.17893C80.9563 5.83791 80.6504 5.43109 80.4505 4.98403C80.2506 4.53697 80.1609 4.05935 80.1871 3.58119ZM90.8377 32.5411C89.5123 32.5339 88.203 32.2914 86.9927 31.8292C85.7225 31.3643 84.5695 30.6935 83.5974 29.8536C82.5727 28.9691 81.7447 27.9323 81.1539 26.7941C80.4919 25.5256 80.1619 24.1486 80.1871 22.7595V16.0375C80.1871 14.6905 80.6443 13.7925 81.5437 13.35C82.8704 12.8366 84.3264 12.6161 85.7784 12.7085H144.308C144.858 12.7069 145.403 12.7982 145.912 12.9774C146.421 13.1566 146.883 13.4201 147.272 13.7527C147.662 14.0853 147.97 14.4805 148.181 14.9155C148.391 15.3505 148.499 15.8169 148.498 16.2877C148.51 16.7641 148.408 17.2376 148.198 17.6789C147.988 18.1202 147.674 18.5199 147.276 18.8533C146.89 19.1902 146.428 19.4557 145.917 19.6333C145.407 19.8109 144.859 19.8969 144.308 19.886H88.5666V23.5421C88.5753 23.7896 88.6468 24.0326 88.7762 24.2542C88.9057 24.4757 89.0899 24.6705 89.3161 24.8249C89.8644 25.2179 90.5656 25.4194 91.2799 25.3894H146.219C146.784 25.3689 147.347 25.4464 147.876 25.6172C148.405 25.788 148.888 26.0486 149.296 26.3833C149.704 26.7179 150.028 27.1198 150.25 27.5646C150.472 28.0094 150.586 28.488 150.586 28.9717C150.586 29.4553 150.472 29.9339 150.25 30.3787C150.028 30.8236 149.704 31.2254 149.296 31.5601C148.888 31.8947 148.405 32.1553 147.876 32.3261C147.347 32.4969 146.784 32.5744 146.219 32.554L90.8377 32.5411Z" fill="url(#paint1_linear_270_122)"/>
<path d="M166.179 19.0715C164.815 18.563 163.575 17.8408 162.521 16.942C161.472 16.0397 160.633 14.9754 160.048 13.8055C159.437 12.5901 159.126 11.28 159.133 9.957C159.115 8.61243 159.427 7.27955 160.048 6.04435C161.249 3.68891 163.447 1.80982 166.201 0.784737C167.621 0.262067 169.152 -0.00432451 170.698 0.00220854H223.636C224.187 -0.00581187 224.734 0.0828196 225.243 0.262636C225.752 0.442452 226.213 0.70964 226.597 1.04772C226.997 1.37969 227.312 1.77915 227.523 2.2208C227.733 2.66244 227.834 3.13665 227.819 3.61338C227.834 4.09012 227.733 4.56432 227.523 5.00597C227.312 5.44762 226.997 5.84708 226.597 6.17905C226.213 6.51713 225.752 6.78432 225.243 6.96413C224.734 7.14395 224.187 7.23258 223.636 7.22456H170.541C169.68 7.2211 168.851 7.50131 168.225 8.00709C167.9 8.25438 167.642 8.55915 167.469 8.90028C167.295 9.24141 167.211 9.61073 167.221 9.98265C167.223 10.3455 167.313 10.704 167.486 11.0354C167.659 11.3667 167.91 11.6635 168.225 11.9069C168.846 12.4191 169.678 12.7004 170.541 12.6894H218.757C220.332 12.6804 221.893 12.9466 223.344 13.472C224.723 13.9745 225.979 14.6947 227.047 15.595C228.109 16.5174 228.954 17.6063 229.535 18.8021C230.148 20.0417 230.459 21.3752 230.45 22.7212C230.462 24.055 230.151 25.3765 229.535 26.6018C228.942 27.7711 228.098 28.835 227.047 29.7383C225.986 30.6365 224.728 31.3451 223.344 31.8229C221.887 32.3279 220.329 32.5829 218.757 32.5733H165.916C165.352 32.5938 164.788 32.5163 164.259 32.3455C163.731 32.1747 163.248 31.9141 162.84 31.5794C162.432 31.2448 162.107 30.8429 161.886 30.3981C161.664 29.9533 161.549 29.4747 161.549 28.991C161.549 28.5074 161.664 28.0288 161.886 27.584C162.107 27.1391 162.432 26.7373 162.84 26.4026C163.248 26.068 163.731 25.8074 164.259 25.6366C164.788 25.4658 165.352 25.3883 165.916 25.4087H219.132C219.973 25.4114 220.78 25.1302 221.38 24.6262C221.689 24.3811 221.934 24.0831 222.1 23.7515C222.265 23.42 222.347 23.0624 222.34 22.7019C222.349 22.328 222.268 21.9565 222.103 21.6101C221.938 21.2638 221.692 20.95 221.38 20.6879C221.091 20.4273 220.742 20.22 220.355 20.0789C219.968 19.9377 219.552 19.8656 219.132 19.8669H170.713C169.154 19.8738 167.609 19.6029 166.179 19.0715Z" fill="url(#paint2_linear_270_122)"/>
<path d="M246.317 31.4958C245.529 32.166 244.463 32.5422 243.352 32.5422C242.241 32.5422 241.176 32.166 240.388 31.4958C239.99 31.1625 239.676 30.7628 239.466 30.3214C239.256 29.8801 239.154 29.4066 239.166 28.9302V3.5814C239.158 3.11023 239.262 2.6426 239.472 2.20701C239.682 1.77142 239.994 1.377 240.388 1.04781C241.176 0.37763 242.241 0.00146484 243.352 0.00146484C244.463 0.00146484 245.529 0.37763 246.317 1.04781C246.717 1.37978 247.032 1.77924 247.242 2.22089C247.453 2.66253 247.553 3.13674 247.538 3.61347V28.9558C247.548 29.4282 247.445 29.8973 247.235 30.3341C247.025 30.771 246.712 31.1664 246.317 31.4958Z" fill="url(#paint3_linear_270_122)"/>
<path d="M279.28 16.2686C279.279 15.7978 279.387 15.3315 279.597 14.8964C279.808 14.4614 280.116 14.0662 280.506 13.7336C280.895 13.401 281.357 13.1375 281.866 12.9583C282.375 12.7792 282.92 12.6878 283.47 12.6895H316.876C318.282 12.6835 319.675 12.9236 320.968 13.395C322.219 13.8499 323.358 14.5028 324.326 15.3193C325.301 16.1476 326.067 17.1388 326.575 18.2313C327.085 19.3602 327.339 20.5617 327.324 21.7719V23.414C327.339 24.6262 327.085 25.8299 326.575 26.961C326.067 28.0535 325.301 29.0448 324.326 29.873C323.361 30.6919 322.221 31.3451 320.968 31.7973C319.676 32.2737 318.283 32.5162 316.876 32.5093H271.44C269.194 32.5401 266.984 32.0216 265.07 31.0147C263.203 30.0141 261.588 28.7059 260.318 27.1662C258.99 25.5624 257.977 23.7836 257.32 21.9002C256.64 20.0657 256.287 18.1544 256.27 16.2301C256.279 14.2901 256.646 12.3635 257.357 10.5215C258.065 8.63779 259.145 6.87186 260.55 5.30036C261.923 3.7466 263.639 2.43897 265.602 1.45186C267.643 0.46264 269.957 -0.038084 272.302 0.00225874H323.149C323.7 -0.00690934 324.248 0.081198 324.757 0.261082C325.266 0.440966 325.727 0.708766 326.11 1.04777C326.51 1.37974 326.825 1.7792 327.036 2.22085C327.246 2.66249 327.347 3.1367 327.332 3.61343C327.347 4.09017 327.246 4.56437 327.036 5.00602C326.825 5.44767 326.51 5.84713 326.11 6.1791C325.727 6.5181 325.266 6.7859 324.757 6.96579C324.248 7.14567 323.7 7.23378 323.149 7.22461H274.229C272.518 7.16283 270.818 7.48337 269.297 8.15466C268.126 8.71807 267.115 9.49556 266.336 10.4317C265.609 11.3183 265.099 12.3221 264.837 13.3822C264.587 14.3493 264.454 15.3359 264.44 16.3263C264.454 17.3189 264.587 18.3076 264.837 19.2768C265.099 20.337 265.609 21.3407 266.336 22.2273C267.113 23.1637 268.124 23.9395 269.297 24.498C270.815 25.1777 272.517 25.5009 274.229 25.4344H316.516C316.881 25.4262 317.24 25.3483 317.565 25.2062C317.891 25.0642 318.175 24.8616 318.397 24.6134C318.937 24.0793 319.23 23.3951 319.222 22.6892C319.231 21.994 318.967 21.3164 318.472 20.7649C318.254 20.4934 317.962 20.2715 317.621 20.1184C317.28 19.9653 316.901 19.8856 316.516 19.8862H283.47C282.919 19.8879 282.374 19.7963 281.864 19.6167C281.355 19.4371 280.893 19.1731 280.503 18.8398C280.114 18.5065 279.805 18.1106 279.595 17.6748C279.385 17.239 279.278 16.772 279.28 16.3007V16.2686Z" fill="url(#paint4_linear_270_122)"/>
<path d="M396.661 1.04775C397.449 0.377574 398.515 0.00140884 399.626 0.00140884C400.736 0.00140884 401.802 0.377574 402.59 1.04775C402.988 1.38098 403.301 1.78082 403.51 2.22227C403.719 2.66372 403.819 3.1373 403.804 3.61342V25.2997C403.828 26.2491 403.629 27.193 403.217 28.0747C402.804 28.9564 402.188 29.7579 401.406 30.431C400.63 31.1165 399.697 31.6563 398.665 32.0163C397.632 32.3763 396.524 32.5485 395.41 32.5221C393.817 32.521 392.256 32.1437 390.898 31.4317L350.963 10.5215C349.862 9.97627 348.94 9.54011 348.22 9.23864C347.673 8.96336 347.061 8.79676 346.429 8.75116C345.56 8.75116 345.005 9.22581 344.773 10.1687C344.497 11.5237 344.379 12.8988 344.42 14.2738V28.9558C344.444 29.439 344.354 29.9213 344.154 30.3738C343.954 30.8262 343.65 31.2394 343.259 31.5886C342.868 31.9377 342.398 32.2155 341.878 32.4053C341.359 32.5951 340.799 32.6929 340.234 32.6929C339.669 32.6929 339.11 32.5951 338.59 32.4053C338.07 32.2155 337.601 31.9377 337.21 31.5886C336.819 31.2394 336.514 30.8262 336.314 30.3738C336.115 29.9213 336.024 29.439 336.048 28.9558V7.24383C336.024 6.29441 336.224 5.35056 336.636 4.46884C337.048 3.58711 337.664 2.78566 338.447 2.1125C339.218 1.42459 340.148 0.88167 341.178 0.518344C342.207 0.155017 343.314 -0.0207505 344.428 0.00224096C346.019 0.00933002 347.576 0.395814 348.925 1.11831L388.866 22.0157C389.968 22.5673 390.883 22.997 391.617 23.2985C392.159 23.5781 392.77 23.745 393.401 23.786C394.278 23.786 394.825 23.3113 395.057 22.3684C395.33 21.0109 395.448 19.634 395.41 18.257V3.58135C395.404 3.1081 395.512 2.63889 395.727 2.20298C395.942 1.76707 396.26 1.37381 396.661 1.04775Z" fill="url(#paint5_linear_270_122)"/>
<path d="M438.29 19.0715C436.923 18.5646 435.679 17.8423 434.625 16.942C433.562 16.0438 432.713 14.9789 432.121 13.8055C431.507 12.5911 431.195 11.2803 431.207 9.95701C431.186 8.61221 431.497 7.27883 432.121 6.04437C433.316 3.68525 435.517 1.80444 438.275 0.784754C439.694 0.260844 441.226 -0.005601 442.772 0.00222617H495.755C496.312 -0.0106185 496.866 0.0756773 497.382 0.255648C497.898 0.435618 498.365 0.705342 498.753 1.04774C499.153 1.37971 499.468 1.77917 499.679 2.22081C499.889 2.66246 499.99 3.13667 499.975 3.6134C499.99 4.09014 499.889 4.56434 499.679 5.00599C499.468 5.44763 499.153 5.84709 498.753 6.17907C498.365 6.52146 497.898 6.79118 497.382 6.97116C496.866 7.15113 496.312 7.23742 495.755 7.22458H442.614C441.786 7.22117 440.986 7.47923 440.366 7.94938C440.042 8.19726 439.786 8.5023 439.614 8.8434C439.442 9.1845 439.358 9.55352 439.369 9.92494C439.37 10.2874 439.458 10.6457 439.63 10.9771C439.802 11.3084 440.052 11.6055 440.366 11.8492C440.96 12.3674 441.766 12.6686 442.614 12.6894H490.838C492.423 12.6776 493.995 12.9439 495.455 13.472C496.834 13.9745 498.09 14.6948 499.158 15.5951C500.218 16.5177 501.06 17.6066 501.639 18.8021C502.258 20.0295 502.577 21.3523 502.575 22.6891C502.592 24.0232 502.281 25.3454 501.661 26.5697C501.071 27.7387 500.229 28.8026 499.18 29.7062C498.12 30.6045 496.861 31.3131 495.478 31.7908C494.021 32.2958 492.462 32.5508 490.891 32.5413H438.05C437.485 32.5617 436.922 32.4842 436.393 32.3134C435.864 32.1426 435.381 31.882 434.973 31.5474C434.565 31.2127 434.241 30.8109 434.019 30.366C433.797 29.9212 433.683 29.4426 433.683 28.959C433.683 28.4754 433.797 27.9967 434.019 27.5519C434.241 27.1071 434.565 26.7052 434.973 26.3706C435.381 26.0359 435.864 25.7753 436.393 25.6045C436.922 25.4337 437.485 25.3562 438.05 25.3767H491.265C492.106 25.3807 492.915 25.0993 493.514 24.5941C493.825 24.3506 494.072 24.0529 494.237 23.721C494.403 23.389 494.483 23.0307 494.473 22.6699C494.484 22.2958 494.404 21.9238 494.239 21.5772C494.074 21.2307 493.827 20.917 493.514 20.6558C493.225 20.3946 492.876 20.187 492.489 20.0457C492.102 19.9045 491.686 19.8327 491.265 19.8348H442.824C441.267 19.8532 439.723 19.5932 438.29 19.0715Z" fill="url(#paint6_linear_270_122)"/>
<path d="M578.336 31.496C577.748 32.0009 576.998 32.3445 576.181 32.4828C575.364 32.6212 574.517 32.548 573.749 32.2726C572.981 31.9973 572.326 31.5323 571.868 30.9369C571.41 30.3416 571.17 29.643 571.178 28.9303V19.8864H519.642V28.956C519.666 29.4392 519.575 29.9215 519.375 30.374C519.176 30.8264 518.871 31.2396 518.48 31.5888C518.089 31.9379 517.62 32.2157 517.1 32.4055C516.58 32.5953 516.021 32.6931 515.456 32.6931C514.891 32.6931 514.331 32.5953 513.811 32.4055C513.292 32.2157 512.822 31.9379 512.431 31.5888C512.04 31.2396 511.736 30.8264 511.536 30.374C511.336 29.9215 511.246 29.4392 511.27 28.956V3.58154C511.262 3.11037 511.366 2.64273 511.576 2.20714C511.786 1.77155 512.097 1.37714 512.491 1.04794C513.281 0.378924 514.348 0.00366211 515.459 0.00366211C516.571 0.00366211 517.637 0.378924 518.428 1.04794C518.825 1.38118 519.138 1.78101 519.347 2.22246C519.556 2.66391 519.656 3.13749 519.642 3.61361V12.7217H571.178V3.58154C571.168 3.11016 571.272 2.64208 571.482 2.20627C571.692 1.77047 572.005 1.37622 572.4 1.04794C573.19 0.378924 574.257 0.00366211 575.368 0.00366211C576.479 0.00366211 577.546 0.378924 578.336 1.04794C578.735 1.38086 579.049 1.78049 579.259 2.22191C579.469 2.66333 579.571 3.13708 579.558 3.61361V28.956C579.566 29.4281 579.462 29.8968 579.252 30.3334C579.042 30.7701 578.73 31.1656 578.336 31.496Z" fill="url(#paint7_linear_270_122)"/>
<path d="M595.433 31.496C594.845 32.0009 594.095 32.3445 593.278 32.4828C592.461 32.6212 591.614 32.548 590.846 32.2726C590.078 31.9973 589.423 31.5323 588.965 30.9369C588.507 30.3416 588.267 29.643 588.275 28.9303V3.58154C588.27 3.10898 588.377 2.64051 588.591 2.20484C588.805 1.76917 589.121 1.3755 589.519 1.04794C590.309 0.378924 591.376 0.00366211 592.487 0.00366211C593.599 0.00366211 594.665 0.378924 595.455 1.04794C595.855 1.37992 596.17 1.77938 596.381 2.22102C596.591 2.66267 596.692 3.13688 596.677 3.61361V28.956C596.684 29.4297 596.577 29.8996 596.363 30.3366C596.149 30.7735 595.832 31.1682 595.433 31.496Z" fill="url(#paint8_linear_270_122)"/>
<path d="M605.364 3.58119C605.356 3.11002 605.46 2.64238 605.67 2.20679C605.88 1.7712 606.192 1.37679 606.586 1.04759C606.974 0.705828 607.441 0.436521 607.957 0.256596C608.473 0.0766717 609.027 -0.00998109 609.584 0.00208368H661.825C663.395 -0.00631018 664.951 0.259979 666.397 0.784612C667.789 1.28982 669.06 2.01189 670.144 2.91411C671.223 3.80376 672.084 4.86769 672.678 6.04423C673.299 7.26831 673.613 8.59033 673.6 9.9248C673.608 11.2485 673.294 12.5593 672.678 13.7733C672.086 14.953 671.225 16.0194 670.144 16.9098C669.058 17.81 667.788 18.5318 666.397 19.0393C664.951 19.564 663.395 19.8302 661.825 19.8219H616.442C615.676 19.9203 614.979 20.2551 614.482 20.7632C613.985 21.2713 613.722 21.9175 613.743 22.5799V28.9236C613.756 29.4036 613.65 29.8805 613.432 30.3227C613.214 30.765 612.888 31.1626 612.477 31.4892C611.891 31.9904 611.144 32.3307 610.331 32.4668C609.518 32.6028 608.676 32.5284 607.912 32.2531C607.149 31.9777 606.499 31.5139 606.045 30.9208C605.591 30.3278 605.354 29.6324 605.364 28.9236V21.8102C605.358 20.5977 605.625 19.3955 606.151 18.2696C606.659 17.1771 607.424 16.1859 608.399 15.3576C609.356 14.5475 610.479 13.8952 611.712 13.4333C613.021 12.9539 614.433 12.7136 615.857 12.7278H662.162C663.027 12.7193 663.854 12.4251 664.471 11.9068C664.785 11.6564 665.037 11.3532 665.208 11.0161C665.38 10.6789 665.469 10.315 665.469 9.94725C665.469 9.57945 665.38 9.2156 665.208 8.87844C665.037 8.54128 664.785 8.23806 664.471 7.98772C664.168 7.726 663.807 7.51859 663.409 7.37762C663.012 7.23665 662.585 7.16495 662.155 7.16671H609.554C608.997 7.17877 608.443 7.09212 607.927 6.91219C607.411 6.73227 606.944 6.46296 606.556 6.1212C606.166 5.78908 605.86 5.39265 605.655 4.956C605.45 4.51934 605.351 4.05159 605.364 3.58119Z" fill="url(#paint9_linear_270_122)"/>
<defs>
<linearGradient id="paint0_linear_270_122" x1="0.401078" y1="16.2664" x2="71.4757" y2="16.2664" gradientUnits="userSpaceOnUse">
<stop stop-color="#16A9B1"/>
<stop offset="1" stop-color="#4361EE"/>
</linearGradient>
<linearGradient id="paint1_linear_270_122" x1="80.1838" y1="16.2805" x2="150.555" y2="16.2805" gradientUnits="userSpaceOnUse">
<stop stop-color="#16A9B1"/>
<stop offset="1" stop-color="#4361EE"/>
</linearGradient>
<linearGradient id="paint2_linear_270_122" x1="159.134" y1="16.2905" x2="230.418" y2="16.2905" gradientUnits="userSpaceOnUse">
<stop stop-color="#16A9B1"/>
<stop offset="1" stop-color="#4361EE"/>
</linearGradient>
<linearGradient id="paint3_linear_270_122" x1="239.165" y1="16.2732" x2="247.536" y2="16.2732" gradientUnits="userSpaceOnUse">
<stop stop-color="#16A9B1"/>
<stop offset="1" stop-color="#4361EE"/>
</linearGradient>
<linearGradient id="paint4_linear_270_122" x1="256.271" y1="16.2567" x2="327.301" y2="16.2567" gradientUnits="userSpaceOnUse">
<stop stop-color="#16A9B1"/>
<stop offset="1" stop-color="#4361EE"/>
</linearGradient>
<linearGradient id="paint5_linear_270_122" x1="336.046" y1="16.348" x2="403.776" y2="16.348" gradientUnits="userSpaceOnUse">
<stop stop-color="#16A9B1"/>
<stop offset="1" stop-color="#4361EE"/>
</linearGradient>
<linearGradient id="paint6_linear_270_122" x1="431.207" y1="16.2741" x2="502.544" y2="16.2741" gradientUnits="userSpaceOnUse">
<stop stop-color="#16A9B1"/>
<stop offset="1" stop-color="#4361EE"/>
</linearGradient>
<linearGradient id="paint7_linear_270_122" x1="511.267" y1="16.3498" x2="579.529" y2="16.3498" gradientUnits="userSpaceOnUse">
<stop stop-color="#16A9B1"/>
<stop offset="1" stop-color="#4361EE"/>
</linearGradient>
<linearGradient id="paint8_linear_270_122" x1="588.275" y1="16.2787" x2="596.675" y2="16.2787" gradientUnits="userSpaceOnUse">
<stop stop-color="#16A9B1"/>
<stop offset="1" stop-color="#4361EE"/>
</linearGradient>
<linearGradient id="paint9_linear_270_122" x1="605.364" y1="16.2684" x2="673.57" y2="16.2684" gradientUnits="userSpaceOnUse">
<stop stop-color="#16A9B1"/>
<stop offset="1" stop-color="#4361EE"/>
</linearGradient>
</defs>
</svg>
