<svg width="143" height="124" viewBox="0 0 143 124" fill="none" xmlns="http://www.w3.org/2000/svg">
<path d="M86.4708 105.094C86.3231 105.759 85.9444 106.372 85.3826 106.856C84.8208 107.34 84.1011 107.673 83.3144 107.813C82.5276 107.953 81.7093 107.893 80.9626 107.642C80.216 107.391 79.5746 106.959 79.1195 106.402C78.6644 105.844 78.4161 105.185 78.4058 104.509C78.3956 103.833 78.6239 103.169 79.0619 102.601C79.4999 102.034 80.1281 101.589 80.8668 101.322C81.6056 101.055 82.422 100.978 83.2127 101.101C83.7384 101.183 84.2399 101.351 84.6883 101.596C85.1367 101.841 85.5233 102.158 85.8259 102.529C86.1285 102.9 86.3413 103.317 86.4519 103.757C86.5626 104.197 86.569 104.652 86.4708 105.094ZM69.8984 9.53323C35.7206 9.3813 9.25819 32.0499 7.69776 60.103C7.31487 66.9765 8.09509 73.1085 11.216 78.7483C12.2273 79.745 13.1882 80.4743 13.9395 81.1793C22.6591 89.5357 35.5038 89.1163 39.5855 88.2412C23.0637 87.8158 14.4741 77.3505 14.9364 62.5582C15.695 38.7532 38.9064 19.5062 67.211 19.7128C79.6869 19.7996 91.7029 23.6858 101.035 30.6521C101.647 31.1116 102.101 31.7014 102.349 32.3594C102.598 33.0175 102.631 33.7196 102.445 34.3921C102.26 35.0646 101.863 35.6828 101.295 36.1817C100.728 36.6806 100.012 37.042 99.2215 37.2278C94.3452 38.3156 88.1757 38.1272 86.7886 37.7747C82.1579 36.6018 80.937 40.3516 84.159 41.3847C85.8951 41.9134 87.7416 42.1368 89.5844 42.0411C89.8897 42.029 90.1898 42.1105 90.4292 42.2703C90.6687 42.43 90.8312 42.6574 90.8867 42.9102C90.9422 43.163 90.887 43.4242 90.7313 43.6454C90.5755 43.8666 90.3298 44.0329 90.0396 44.1134C86.3126 45.0417 82.4876 45.6645 78.618 45.9731C72.5497 46.5383 73.2432 50.6648 78.6614 50.5372C91.954 50.2273 103.224 39.2272 107.804 36.7112C112.066 41.6278 115.7 47.2615 117.195 53.43C116.386 54.2323 109.249 62.7588 109.617 68.2953C109.87 71.7168 114.522 71.8992 114.212 67.1223C114.003 65.2242 114.345 63.3118 115.209 61.5494C115.375 61.2519 115.655 61.0101 116.004 60.8627C116.353 60.7154 116.751 60.6711 117.134 60.7371C117.517 60.803 117.862 60.9753 118.114 61.2262C118.366 61.4772 118.511 61.7922 118.525 62.1207C118.525 62.6008 118.525 63.0809 118.525 63.5671C118.431 78.3837 109.335 88.8428 95.7539 95.7346C94.7368 96.2513 93.9273 97.0129 93.4302 97.9208C92.933 98.8288 92.7711 99.8413 92.9654 100.827V100.931C93.1308 101.761 93.5412 102.543 94.159 103.205C94.7768 103.868 95.5823 104.389 96.5017 104.722C97.4211 105.054 98.425 105.188 99.4214 105.109C100.418 105.031 101.375 104.743 102.205 104.273C119.269 94.7622 131.29 78.5174 131.398 60.6621C131.68 32.5725 104.076 9.67909 69.8984 9.53323Z" fill="url(#paint0_radial_270_110)"/>
<path d="M84.8525 121.18C83.9619 121.349 83.0365 121.338 82.1522 121.147C81.2678 120.957 80.4496 120.593 79.7645 120.086C79.0795 119.578 78.5471 118.941 78.2109 118.227C77.8747 117.513 77.7444 116.743 77.8306 115.978V115.881C77.9582 114.885 78.4488 113.946 79.235 113.193C80.0213 112.44 81.0648 111.91 82.2229 111.675C109.148 106.206 131.297 84.935 131.449 60.6255C131.629 32.5481 104.062 9.65467 69.8839 9.50881C35.7061 9.36296 9.43876 32.0619 7.69772 60.1029C6.43348 80.4499 20.6002 86.2356 26.8708 90.4229C19.7044 89.0858 5.83387 89.4809 0.451815 61.7012C0.451815 60.899 0.401245 60.0968 0.401245 59.2703C0.497044 43.4704 8.04982 28.3497 21.398 17.2345C28.0074 11.7309 35.8407 7.37622 44.4506 4.41924C53.0604 1.46227 62.2784 -0.0391295 71.578 0.000775038C80.8776 0.0406796 90.0768 1.6211 98.6504 4.65181C107.224 7.68252 115.004 12.1042 121.546 17.6643C128.089 23.2244 133.265 29.8141 136.78 37.0571C140.295 44.3002 142.08 52.0547 142.032 59.878C141.852 88.6179 116.061 114.927 84.8525 121.18ZM68.9592 114.015C67.7974 113.835 66.5981 113.948 65.5128 114.341C64.4276 114.734 63.5052 115.389 62.8623 116.222C62.2193 117.056 61.8847 118.032 61.9006 119.026C61.9166 120.019 62.2824 120.987 62.9519 121.806C63.6214 122.625 64.5645 123.258 65.6619 123.626C66.7594 123.994 67.9619 124.08 69.1175 123.874C70.2731 123.667 71.3299 123.177 72.1542 122.465C72.9786 121.753 73.5335 120.851 73.7489 119.874C74.0385 118.566 73.7 117.215 72.8076 116.117C71.9152 115.019 70.5417 114.263 68.9881 114.015H68.9592Z" fill="url(#paint1_radial_270_110)"/>
<path style="mix-blend-mode:multiply" opacity="0.37" d="M39.5855 88.2531C32.0723 88.0586 26.2062 85.7857 22.0812 81.9752C7.22814 75.8978 0.914166 62.5276 0.971959 52.1475C0.616948 54.5164 0.426386 56.9008 0.401245 59.2884C0.401245 60.0967 0.401245 60.8989 0.451815 61.7193C5.83387 89.4807 19.7044 89.0857 26.8708 90.4227C30.4829 89.0067 35.8867 89.0431 39.5855 88.2531Z" fill="url(#paint2_linear_270_110)"/>
<path d="M77.1298 69.0305C65.99 81.2643 51.1731 90.4289 31.9278 87.8278C13.087 85.2753 1.12366 69.857 0.9575 52.1233C-4.30174 83.0145 18.7147 98.9919 42.3812 100.226C63.1437 101.313 80.5541 91.2555 90.7836 79.046C87.4243 74.0687 80.3879 70.72 77.1298 69.0305Z" fill="url(#paint3_radial_270_110)"/>
<path d="M84.7224 73.3455C82.3173 71.7623 79.7852 70.3206 77.1442 69.0305C66.0045 81.2643 51.1876 90.4289 31.9422 87.8278C13.087 85.2753 1.12364 69.857 0.957478 52.1233C0.957478 52.1233 0.957478 52.1841 0.957478 52.2145C-2.08392 80.4499 18.8086 93.5405 39.5999 94.4947C58.5274 95.3455 75.3309 86.2599 84.7224 73.3455Z" fill="url(#paint4_radial_270_110)"/>
<path d="M92.5608 79.9941C85.7418 77.8961 79.8398 74.1071 75.6344 69.1278C75.1201 68.5371 74.8544 67.8191 74.8793 67.0872C74.9041 66.3554 75.2181 65.6513 75.7717 65.0863C81.096 59.6167 96.2163 44.2774 100.883 40.7769C106.576 36.5227 118.51 31.521 121.154 33.2105C123.798 34.9 121.552 45.7603 118.185 51.8255C116.018 55.6846 101.981 72.8957 97.076 78.7604C96.5887 79.3544 95.8826 79.7971 95.0666 80.02C94.2506 80.243 93.37 80.2339 92.5608 79.9941Z" fill="url(#paint5_linear_270_110)"/>
<path d="M121.176 33.2468C121.112 33.2096 121.044 33.1771 120.974 33.1496C117.983 31.7883 106.467 36.6502 100.905 40.8132C96.2379 44.2955 81.1176 59.653 75.7933 65.1226C75.2398 65.6876 74.9257 66.3917 74.9009 67.1235C74.876 67.8554 75.1417 68.5734 75.656 69.1641C77.0866 70.8033 78.687 72.3327 80.4385 73.7342C80.8527 74.0624 81.2717 74.3784 81.6955 74.6823L81.9845 74.889C82.3529 75.1503 82.7069 75.3994 83.097 75.6486L83.3065 75.7884C83.7544 76.074 84.2023 76.3475 84.6647 76.6088L84.8669 76.7243C85.2498 76.9431 85.6399 77.1558 86.03 77.332L86.384 77.5144C86.7886 77.721 87.2004 77.9216 87.6122 78.1221L87.7855 78.2011C88.2551 78.4138 88.7319 78.6205 89.2304 78.8089L89.5916 78.9486C89.96 79.0945 90.314 79.2343 90.7113 79.368L91.1231 79.5199C91.6144 79.684 92.1056 79.8481 92.568 80H92.698C93.4876 80.2154 94.3383 80.2138 95.1267 79.9952C95.9151 79.7767 96.6004 79.3526 97.0831 78.7845C101.988 72.9199 116.054 55.6905 118.192 51.8497C121.566 45.7966 123.784 34.985 121.176 33.2468ZM116.076 51.0778C113.627 54.8033 98.3185 71.2486 92.8353 76.7425C90.8125 78.7724 87.5905 77.6116 83.5449 74.8586C80.9948 73.1204 77.2237 69.8144 79.4704 67.2983C84.5274 61.6646 98.6147 45.6325 103.058 41.9496C107.659 38.127 116.711 33.5933 121.024 33.2712C122.549 36.1579 119.623 45.6751 116.076 51.0778Z" fill="url(#paint6_linear_270_110)"/>
<path d="M78.748 62.0476L69.3565 69.5713C69.223 69.7023 69.0401 69.7908 68.8383 69.8219C68.6366 69.8531 68.4283 69.8251 68.2481 69.7426C68.068 69.66 67.927 69.528 67.8487 69.3685C67.7703 69.2091 67.7594 69.0318 67.8178 68.8664L69.8189 63.1354C69.9861 62.6594 70.2972 62.228 70.7219 61.8835L78.0256 55.9824C78.368 55.7054 78.8166 55.5404 79.2907 55.517C79.7649 55.4936 80.2334 55.6134 80.6119 55.8547L83.2487 57.5382L78.748 62.0476ZM99.7922 75.4846L93.7166 85.1476C93.6024 85.291 93.5502 85.4631 93.5687 85.635C93.5873 85.8069 93.6753 85.9683 93.8183 86.0921C93.9613 86.2159 94.1504 86.2947 94.3541 86.3153C94.5579 86.3358 94.7638 86.2969 94.9375 86.2051L100.955 83.0449C101.458 82.7828 101.869 82.4138 102.147 81.9752L106.944 74.4758C107.167 74.1239 107.234 73.7171 107.133 73.3276C107.033 72.938 106.771 72.5912 106.395 72.3487L103.758 70.6653L99.7922 75.4846ZM81.7822 78.2984L86.2685 74.731L93.5794 66.6238C93.6702 66.5249 93.7368 66.4117 93.7751 66.2909C93.8134 66.1701 93.8228 66.044 93.8026 65.9201C93.7824 65.7963 93.7331 65.677 93.6576 65.5693C93.5821 65.4616 93.4818 65.3676 93.3627 65.2929L92.1562 64.5211C91.916 64.3695 91.6145 64.3036 91.317 64.3378C91.0196 64.3719 90.75 64.5033 90.5669 64.7034L83.2126 72.8531L80.3879 77.399C80.2964 77.5554 80.2722 77.7336 80.3194 77.9033C80.3665 78.073 80.4821 78.2238 80.6465 78.3298C80.8109 78.4359 81.014 78.4907 81.221 78.485C81.4281 78.4793 81.6264 78.4133 81.7822 78.2984Z" fill="url(#paint7_linear_270_110)"/>
<path d="M108.476 41.5367C107.31 41.5835 106.186 41.9201 105.248 42.504C104.309 43.0879 103.597 43.8929 103.203 44.8171C102.808 45.7413 102.748 46.7432 103.03 47.6962C103.312 48.6491 103.924 49.5103 104.788 50.1708C105.652 50.8312 106.729 51.2614 107.883 51.4067C109.038 51.5521 110.218 51.4062 111.274 50.9874C112.33 50.5687 113.214 49.8959 113.816 49.0542C114.417 48.2125 114.708 47.2397 114.652 46.2588C114.578 44.9436 113.885 43.7072 112.727 42.8217C111.568 41.9361 110.039 41.4739 108.476 41.5367ZM108.967 50.2151C108.092 50.2504 107.224 50.0665 106.473 49.6868C105.723 49.307 105.122 48.7485 104.749 48.0818C104.376 47.4151 104.246 46.6702 104.376 45.9414C104.506 45.2126 104.89 44.5325 105.479 43.9873C106.069 43.4421 106.837 43.0562 107.687 42.8785C108.537 42.7008 109.431 42.7392 110.255 42.9888C111.08 43.2385 111.797 43.6882 112.318 44.2811C112.838 44.874 113.138 45.5834 113.179 46.3195C113.208 46.8083 113.122 47.2971 112.926 47.7578C112.73 48.2185 112.427 48.642 112.036 49.004C111.644 49.366 111.172 49.6594 110.645 49.8672C110.118 50.0751 109.548 50.1933 108.967 50.2151Z" fill="url(#paint8_linear_270_110)"/>
<defs>
<radialGradient id="paint0_radial_270_110" cx="0" cy="0" r="1" gradientUnits="userSpaceOnUse" gradientTransform="translate(69.5372 58.7113) scale(60.2212 50.6609)">
<stop stop-color="#00FF1E"/>
<stop offset="0.08" stop-color="#0BFF3A"/>
<stop offset="0.27" stop-color="#21FF71"/>
<stop offset="0.43" stop-color="#31FF9A"/>
<stop offset="0.55" stop-color="#3BFFB3"/>
<stop offset="0.63" stop-color="#3FFFBC"/>
<stop offset="0.69" stop-color="#3DFBBB"/>
<stop offset="0.75" stop-color="#36EDBA"/>
<stop offset="0.82" stop-color="#2CD7B7"/>
<stop offset="0.89" stop-color="#1DB8B2"/>
<stop offset="0.96" stop-color="#0A91AD"/>
<stop offset="1" stop-color="#007CAA"/>
</radialGradient>
<radialGradient id="paint1_radial_270_110" cx="0" cy="0" r="1" gradientUnits="userSpaceOnUse" gradientTransform="translate(70.4413 61.7965) rotate(8.78358) scale(71.5087 60.7359)">
<stop stop-color="#00FF1E"/>
<stop offset="0.08" stop-color="#0BFF3A"/>
<stop offset="0.27" stop-color="#21FF71"/>
<stop offset="0.43" stop-color="#31FF9A"/>
<stop offset="0.55" stop-color="#3BFFB3"/>
<stop offset="0.63" stop-color="#3FFFBC"/>
<stop offset="0.69" stop-color="#3DFBBB"/>
<stop offset="0.75" stop-color="#36EDBA"/>
<stop offset="0.82" stop-color="#2CD7B7"/>
<stop offset="0.89" stop-color="#1DB8B2"/>
<stop offset="0.96" stop-color="#0A91AD"/>
<stop offset="1" stop-color="#007CAA"/>
</radialGradient>
<linearGradient id="paint2_linear_270_110" x1="10.2695" y1="53.0104" x2="22.2955" y2="94.4161" gradientUnits="userSpaceOnUse">
<stop stop-color="white"/>
<stop offset="1" stop-color="#212120"/>
</linearGradient>
<radialGradient id="paint3_radial_270_110" cx="0" cy="0" r="1" gradientUnits="userSpaceOnUse" gradientTransform="translate(91.8828 68.9452) rotate(8.78358) scale(106.962 90.8482)">
<stop stop-color="#B894C4"/>
<stop offset="0.4" stop-color="#83A5D6"/>
<stop offset="1" stop-color="#38BEEF"/>
</radialGradient>
<radialGradient id="paint4_radial_270_110" cx="0" cy="0" r="1" gradientUnits="userSpaceOnUse" gradientTransform="translate(77.6635 75.1767) rotate(8.78359) scale(81.9248 69.5828)">
<stop stop-color="#F3D2E5"/>
<stop offset="0.46" stop-color="#A7CAE5"/>
<stop offset="1" stop-color="#49BFE4"/>
</radialGradient>
<linearGradient id="paint5_linear_270_110" x1="106.844" y1="49.6273" x2="73.7387" y2="101.55" gradientUnits="userSpaceOnUse">
<stop stop-color="white"/>
<stop offset="0.43" stop-color="#B3E4F4"/>
<stop offset="1" stop-color="#49BFE4"/>
</linearGradient>
<linearGradient id="paint6_linear_270_110" x1="113.053" y1="43.8157" x2="81.2796" y2="91.8065" gradientUnits="userSpaceOnUse">
<stop stop-color="white"/>
<stop offset="0.43" stop-color="#B3DCF2"/>
<stop offset="1" stop-color="#48AAE0"/>
</linearGradient>
<linearGradient id="paint7_linear_270_110" x1="95.3204" y1="62.1023" x2="81.5804" y2="83.5413" gradientUnits="userSpaceOnUse">
<stop stop-color="#6BC4D1"/>
<stop offset="0.38" stop-color="#7394BA"/>
<stop offset="1" stop-color="#804996"/>
</linearGradient>
<linearGradient id="paint8_linear_270_110" x1="115.219" y1="40.2887" x2="102.831" y2="57.704" gradientUnits="userSpaceOnUse">
<stop stop-color="#6BC4D1"/>
<stop offset="0.38" stop-color="#7394BA"/>
<stop offset="1" stop-color="#804996"/>
</linearGradient>
</defs>
</svg>
