<?xml version="1.0" encoding="iso-8859-1"?>
<!-- Generator: Adobe Illustrator 21.0.0, SVG Export Plug-In . SVG Version: 6.00 Build 0)  -->
<svg version="1.1" id="Layer_1_1_" xmlns="http://www.w3.org/2000/svg" xmlns:xlink="http://www.w3.org/1999/xlink" x="0px" y="0px"
	 viewBox="0 0 40 48" style="enable-background:new 0 0 40 48;" xml:space="preserve">
<path d="M20.707,19.293c-0.391-0.391-1.023-0.391-1.414,0l-9,9c-0.391,0.391-0.391,1.023,0,1.414l9,9C19.488,38.902,19.744,39,20,39
	s0.512-0.098,0.707-0.293l9-9c0.391-0.391,0.391-1.023,0-1.414L20.707,19.293z M20,36.586L12.414,29L20,21.414L27.586,29L20,36.586z
	"/>
<path d="M4.586,25l-3.293,3.293c-0.391,0.391-0.391,1.023,0,1.414l18,18C19.488,47.902,19.744,48,20,48s0.512-0.098,0.707-0.293
	l18-18c0.391-0.391,0.391-1.023,0-1.414L35.414,25l4.293-4.293c0.391-0.391,0.391-1.023,0-1.414l-19-19
	c-0.391-0.391-1.023-0.391-1.414,0l-19,19c-0.391,0.391-0.391,1.023,0,1.414L4.586,25z M20,45.586L3.414,29L20,12.414L36.586,29
	L20,45.586z M20,2.414L37.586,20L34,23.586L20.707,10.293c-0.391-0.391-1.023-0.391-1.414,0L6,23.586L2.414,20L20,2.414z"/>
<circle cx="20" cy="29" r="2"/>
</svg>
