<svg width="32" height="24" viewBox="0 0 32 24" fill="none" xmlns="http://www.w3.org/2000/svg">
<path d="M32 11.464V12.537L31.969 12.709C31.917 13.178 31.88 13.647 31.808 14.105C31.5621 15.5911 31.0296 17.0152 30.24 18.298C29.0788 20.2257 27.3909 21.7815 25.375 22.782C24.2017 23.3713 22.9342 23.7504 21.63 23.902C21.338 23.938 21.047 23.97 20.76 24.001H9.51499C9.45799 23.991 9.40599 23.975 9.34799 23.97C8.22042 23.9018 7.11423 23.6318 6.08199 23.173C3.81599 22.163 2.12899 20.532 1.02499 18.288C0.539691 17.2938 0.22465 16.2253 0.0929929 15.127L-0.00100708 14.325V13.283C0.00899292 13.226 0.0249929 13.168 0.0299929 13.111C0.0869929 12.116 0.289993 11.142 0.644993 10.21C1.59799 7.70495 3.26499 5.84495 5.62899 4.63695C6.84193 4.02238 8.17165 3.67265 9.52999 3.61095C10.202 3.57995 10.874 3.61095 11.535 3.70495C11.5698 3.70899 11.6051 3.70545 11.6384 3.69457C11.6717 3.6837 11.7023 3.66575 11.728 3.64195C12.673 2.65558 13.7813 1.83992 15.004 1.23095C16.1838 0.637546 17.4584 0.255114 18.77 0.100953C19.083 0.0649531 19.395 0.0329531 19.702 0.00195312H20.66C20.723 0.0119531 20.79 0.0229531 20.848 0.0279531C21.327 0.0849531 21.801 0.121953 22.275 0.204953C23.728 0.454953 25.124 0.990953 26.369 1.78295C28.2863 2.97857 29.8222 4.69698 30.796 6.73595C31.379 7.93395 31.754 9.22595 31.905 10.549L31.999 11.466L32 11.464ZM14.104 4.53095C14.125 4.55695 14.13 4.57295 14.14 4.57295C14.796 4.90595 15.426 5.29195 16.02 5.72895C16.056 5.75495 16.15 5.74495 16.197 5.71895C17.822 4.66695 19.593 4.30795 21.489 4.64595C23.348 4.98495 24.864 5.92695 26.02 7.43795C27.327 9.14595 27.827 11.079 27.468 13.224C27.223 14.662 26.655 15.958 25.692 17.037C23.932 19.011 21.728 19.829 19.135 19.485C17.541 19.271 16.161 18.568 15.02 17.396C13.556 15.896 12.082 14.401 10.614 12.901C10.416 12.698 10.203 12.542 9.92099 12.505C9.68489 12.4723 9.44455 12.5171 9.2361 12.6327C9.02764 12.7483 8.86233 12.9284 8.76499 13.146C8.57699 13.542 8.60399 13.995 9.01499 14.406C10.65 16.041 12.27 17.692 13.906 19.328C14.187 19.609 14.489 19.87 14.807 20.104C16 20.984 17.349 21.474 18.807 21.672C19.953 21.823 21.088 21.792 22.213 21.531C24.364 21.041 26.145 19.927 27.546 18.203C28.6927 16.8031 29.4204 15.1076 29.645 13.312C29.7895 12.2641 29.7614 11.1997 29.562 10.161C29.234 8.46795 28.531 6.95295 27.401 5.66095C25.245 3.19695 22.531 2.09795 19.302 2.34295C18.0677 2.44722 16.8686 2.80718 15.781 3.39995C15.1836 3.71365 14.6228 4.09263 14.109 4.52995L14.104 4.53095ZM13.318 21.719C13.271 21.677 13.229 21.636 13.183 21.594C12.516 20.953 11.844 20.313 11.183 19.662C11.1293 19.6024 11.0633 19.5553 10.9896 19.5239C10.9158 19.4925 10.8361 19.4775 10.756 19.48C10.084 19.496 9.41699 19.501 8.75599 19.35C5.47499 18.595 3.56799 14.965 4.77699 11.772C5.72999 9.25595 8.37099 7.72495 10.975 8.19395C12.142 8.40795 13.168 8.91295 14.011 9.79295C15.037 10.871 16.089 11.913 17.131 12.981C17.365 13.221 17.636 13.335 17.964 13.288C18.381 13.225 18.719 13.022 18.87 12.6C19.021 12.183 18.948 11.793 18.641 11.475C17.552 10.355 16.49 9.20395 15.36 8.13095C13.162 6.04795 10.574 5.42795 7.70899 6.31295C3.85999 7.50595 1.60499 11.547 2.48499 15.537C3.28699 19.178 6.41699 21.725 10.074 21.73H13.142C13.189 21.73 13.241 21.725 13.319 21.72L13.318 21.719Z" fill="#6FFFA0"/>
</svg>
