<svg width="21" height="30" viewBox="0 0 21 30" fill="none" xmlns="http://www.w3.org/2000/svg">
<path fill-rule="evenodd" clip-rule="evenodd" d="M8.28417 27.3068H12.5949L12.0083 30H8.86301L8.28417 27.3068V27.3068ZM7.08667 10.8252C7.31119 14.8758 8.30814 19.9375 10.0176 25.8125C10.3132 25.9656 10.5939 25.9597 10.8614 25.8125C12.5704 19.9395 13.5673 14.879 13.7921 10.8291C14.5318 -3.75 6.36416 -3.33984 7.08667 10.8252ZM8.87066 0C8.87066 0 3.83862 1.96969 4.20087 9.54557C4.56306 17.1214 9.56813 25.8084 9.56813 25.8084C6.48687 22.9811 1.92308 14.1731 1.83515 8.99004C1.80348 4.39453 4.82877 0.54082 8.87066 0ZM0.870159 9.65508C1.6057 17.3476 9.19211 26.1054 8.58648 25.5309C6.8971 24.0241 1.20884 16.9296 0.139941 10.2817C-0.928956 3.63381 4.47626 1.33125 4.47626 1.33125C1.33875 3.53127 0.518052 6.75082 0.870216 9.65514L0.870159 9.65508ZM12.453 25.4467C12.8657 24.5572 16.4341 16.6821 16.7753 9.54557C17.1375 1.96969 12.1055 0 12.1055 0C12.5746 0.020625 13.6187 0.335625 14.6044 0.821484C15.5901 1.30729 19.0731 3.52072 19.141 8.99004C19.0832 12.3949 17.5278 17.2441 15.5939 20.9725C17.5528 17.8655 19.7508 13.6189 20.1298 9.65508C20.482 6.75082 19.6613 3.53127 16.5237 1.33125C16.5237 1.33125 21.9289 3.63381 20.8601 10.2817C19.7911 16.9296 14.0926 24.0312 12.4033 25.538L12.453 25.4467V25.4467Z" fill="#6FFFA0"/>
</svg>
