<svg width="21" height="32" viewBox="0 0 21 32" fill="none" xmlns="http://www.w3.org/2000/svg">
<path d="M5.15308 0H10.2855V10.3706H5.15315C-1.6153 10.1033 -1.68365 0.28075 5.15308 0ZM5.15308 21.1848H10.2855V10.8142H5.15315C-1.68359 11.0949 -1.61523 20.9175 5.15315 21.1848H5.15308ZM15.8571 0H10.7245V10.3706H15.8571C22.7166 9.99975 22.6311 0.211687 15.8571 0ZM10.2855 26.8137V21.6284H5.15315C0.96489 21.6284 -1.68359 26.5894 1.22923 30.1526C4.00639 33.6844 10.2856 31.9236 10.2856 26.8137H10.2855ZM21 15.9995C21 12.0145 16.7006 9.51044 13.2798 11.5029C9.85895 13.4954 9.85889 18.5036 13.2798 20.4961C16.7007 22.4886 21 19.9845 21 15.9995Z" fill="#6FFFA0"/>
</svg>
